<?xml version="1.0" standalone="no"?>
<!DOCTYPE svg PUBLIC "-//W3C//DTD SVG 1.1//EN" "http://www.w3.org/Graphics/SVG/1.1/DTD/svg11.dtd" >
<!--
2013-9-30: Created.
-->
<svg>
<metadata>
Created by iconfont
</metadata>
<defs>

<font id="custom" horiz-adv-x="1024" >
  <font-face
    font-family="custom"
    font-weight="500"
    font-stretch="normal"
    units-per-em="1024"
    ascent="896"
    descent="-128"
  />
    <missing-glyph />
    
    <glyph glyph-name="x" unicode="x" horiz-adv-x="1001"
d="M281 543q-27 -1 -53 -1h-83q-18 0 -36.5 -6t-32.5 -18.5t-23 -32t-9 -45.5v-76h912v41q0 16 -0.5 30t-0.5 18q0 13 -5 29t-17 29.5t-31.5 22.5t-49.5 9h-133v-97h-438v97zM955 310v-52q0 -23 0.5 -52t0.5 -58t-10.5 -47.5t-26 -30t-33 -16t-31.5 -4.5q-14 -1 -29.5 -0.5
t-29.5 0.5h-32l-45 128h-439l-44 -128h-29h-34q-20 0 -45 1q-25 0 -41 9.5t-25.5 23t-13.5 29.5t-4 30v167h911zM163 247q-12 0 -21 -8.5t-9 -21.5t9 -21.5t21 -8.5q13 0 22 8.5t9 21.5t-9 21.5t-22 8.5zM316 123q-8 -26 -14 -48q-5 -19 -10.5 -37t-7.5 -25t-3 -15t1 -14.5
t9.5 -10.5t21.5 -4h37h67h81h80h64h36q23 0 34 12t2 38q-5 13 -9.5 30.5t-9.5 34.5q-5 19 -11 39h-368zM336 498v228q0 11 2.5 23t10 21.5t20.5 15.5t34 6h188q31 0 51.5 -14.5t20.5 -52.5v-227h-327z" />
    

    
    <glyph glyph-name="quxiao" unicode="&#58907;" d="M888.444237-42.403371l-342.749988 342.726735 341.273297 341.250104c9.348285 9.371438 9.348285 24.575722 0 33.94716-9.396383 9.347902-24.577752 9.347902-33.948551 0l-341.263063-341.262384L169.02027 676.973724c-9.395359 9.417487-24.64734 9.417487-34.042699 0-9.394336-9.371438-9.394336-24.622794 0-34.016745L477.722443 300.224104l-342.018294-342.019631c-9.371822-9.369392-9.371822-24.553209 0-33.9226 9.371822-9.371438 24.576729-9.371438 33.925014 0l342.029551 342.008374 342.744872-342.735945c9.395359-9.395998 24.646316-9.395998 34.041675 0C897.84062-67.050724 897.839596-51.820857 888.444237-42.403371z"  horiz-adv-x="1024" />

    
    <glyph glyph-name="kefu" unicode="&#58881;" d="M224.080968 12.224912 192.089965 12.224912c-109.441223 0-191.946021 82.504798-191.946021 191.946021s82.504798 191.946021 191.946021 191.946021l31.991004 0L224.080968 12.224912zM160.098961 328.615937C102.963029 315.499625 64.125951 267.161219 64.125951 204.170933s38.837078-111.296701 95.973011-124.476995L160.098961 328.615937zM831.910035 12.224912l-31.991004 0L799.919032 396.116954l31.991004 0c109.441223 0 191.946021-82.504798 191.946021-191.946021S941.351258 12.224912 831.910035 12.224912M863.901039 328.615937l0-248.858016c57.135932 13.116311 95.973011 61.454718 95.973011 124.445004C959.874049 267.225201 921.036971 315.467634 863.901039 328.615937M863.901039-147.730106l0 63.982007c15.93152 0 31.991004 9.949202 31.991004 31.991004l63.982007 0C959.874049-106.461711 918.605655-147.730106 863.901039-147.730106M735.937025-83.748099l127.964014 0 0-63.982007-127.964014 0 0 63.982007ZM656.759291-212.000032c-52.881129 0-95.973011 43.059891-95.973011 95.973011 0 52.881129 43.091882 95.973011 95.973011 95.973011 52.91312 0 95.973011-43.091882 95.973011-95.973011C752.732302-168.940141 709.768384-212.000032 656.759291-212.000032M656.759291-84.036018c-17.627043 0-31.991004-14.33197-31.991004-31.991004s14.363961-31.991004 31.991004-31.991004c17.691025 0 31.991004 14.33197 31.991004 31.991004S674.450316-84.036018 656.759291-84.036018M863.901039 459.907015l-63.982007 0C799.919032 618.774339 670.771351 748.017993 512 748.017993s-287.919032-129.243654-287.919032-288.110978L160.098961 459.907015C160.098961 654.028425 317.974564 812 512 812 705.993445 812 863.901039 654.028425 863.901039 459.907015"  horiz-adv-x="1024" />

    
    <glyph glyph-name="yiwancheng" unicode="&#58928;" d="M213.622844 53.955234l219.738633 0-19.274996 36.45119L213.622844 90.406424 213.622844 53.955234zM760.386602-55.405499l0-18.21792c0-20.129456-16.319687-36.450167-36.45119-36.450167L158.94657-110.073586c-20.13048 0-36.45119 16.320711-36.45119 36.450167L122.49538 673.623419c0 20.129456 16.320711 36.45119 36.45119 36.45119l382.735961 0 0-164.02882c0-40.259936 32.641421-72.90238 72.90238-72.90238l54.640458 0c0 0 0.01842 0 0.035816 0 0.017396 0 0.034792 0 0.034792 0l91.091648 0 0-83.153862 36.45119-15.94618L796.838815 491.367469l-6.442736 6.442736 1.103124 6.442736L566.528406 746.524776 487.005234 746.524776c-133.36238 0-328.057641 0-328.057641 0-40.259936 0-72.90238-32.642444-72.90238-72.90238l0-747.245815c0-40.258912 32.642444-72.901357 72.90238-72.901357l564.988842 0c40.260959 0 72.90238 32.642444 72.90238 72.901357 0 0 0 15.423271 0 26.199709C796.837792-21.900408 760.386602-55.405499 760.386602-55.405499zM578.133721 679.790886 737.694787 509.593576 614.584911 509.593576c-20.13048 0-36.45119 16.321734-36.45119 36.45119L578.133721 679.790886zM487.005234 345.564755 213.622844 345.564755 213.622844 309.113565 487.005234 309.113565 487.005234 345.564755zM487.005234 473.142385 213.622844 473.142385l0-36.45119L487.005234 436.691195 487.005234 473.142385zM213.622844 217.985078l0-36.450167 183.181019 0 18.225083 36.450167L213.622844 217.985078zM937.357176 312.05864l-28.727275 28.299533c-5.303796 5.206582-13.864776 5.206582-19.168572 0L617.361141 71.257296 503.736291 184.044058c-5.304819 5.215792-13.881149 5.215792-19.168572 0l-28.727275-28.290323c-5.287423-5.214768-5.287423-13.660114 0-18.865673l122.827443-121.893164c0.122797-0.134053 0.158612-0.302899 0.283456-0.435928l19.862373-19.568684 4.592598-4.555759 0.016373 0.016373 4.253884-4.181229c5.287423-5.216815 13.865799-5.216815 19.151176 0L937.357176 293.201154C942.642552 298.398526 942.642552 306.852058 937.357176 312.05864z"  horiz-adv-x="1024" />

    
    <glyph glyph-name="tuikuanshouhou" unicode="&#58995;" d="M169.225681 231.218338c-6.246261 0-12.518105 2.511193-18.127869 7.240915l-89.149413 72.652693c-9.242502 7.814989-13.640672 19.428491-11.652388 30.468942 1.733481 9.688663 8.375761 17.49035 17.758456 20.881586l111.599727 40.272215c10.92584 3.926426 23.036669 0.509606 30.621415-8.567119 6.246261-7.470135 8.936533-17.771759 7.189749-27.549449l-23.151279-111.178125C191.688275 240.869139 181.820534 231.218338 169.225681 231.218338zM847.517031 404.341281c-7.215332 0-13.053294 5.838985-13.053294 13.054317 0 135.860271-91.420129 255.733429-222.307132 291.517423-6.961552 1.899256-11.05273 9.076726-9.153474 16.037255 1.912559 6.960529 9.165754 11.001565 16.037255 9.153474 142.209886-38.882566 241.531985-169.107489 241.531985-316.709175C860.572372 410.180266 854.733387 404.341281 847.517031 404.341281zM549.880237 719.112314c-0.2415 0-0.485047 0-0.727571 0.025583-5.596462 0.305969-11.230786 0.459464-16.878412 0.459464-7.215332 0-13.054317 5.838985-13.054317 13.054317s5.838985 13.054317 13.054317 13.054317c6.131651 0 12.225439-0.178055 18.307971-0.51063 7.202029-0.382717 12.709463-6.53995 12.313443-13.743002C562.526255 724.505138 556.764018 719.112314 549.880237 719.112314zM521.298272 2.295532c-102.037954 0-200.519919 36.905538-277.277094 103.911628-10.861372 9.486048-11.982916 25.981744-2.498914 36.843116 9.497305 10.849092 26.007327 11.983939 36.843116 2.49789 67.24759-58.706053 153.516396-91.036389 242.932891-91.036389 203.872271 0 369.729739 165.857469 369.729739 369.729739 0 203.872271-165.856445 369.742019-369.729739 369.742019-203.858968 0-369.716436-165.869748-369.716436-369.742019 0-15.820314 1.006933-31.743982 2.996241-47.321772 1.835811-14.303774-8.273431-27.383674-22.577205-29.207206-14.252609-1.899256-27.383674 8.286734-29.207206 22.577205-2.281973 17.784038-3.429099 35.925211-3.429099 53.951773 0 232.671177 189.275831 421.960311 421.933705 421.960311S943.246303 656.913717 943.246303 424.24254C943.246303 191.583642 753.956146 2.295532 521.298272 2.295532zM465.970152 427.989887l-93.228311 156.218948c-3.849678 6.845918-5.78782 13.500479-5.78782 19.925818 0 6.42534 2.792603 11.57564 8.363482 15.425318 5.570879 4.28356 12.110829 6.437619 19.606547 6.437619 7.496741 0 14.240329-5.1503 20.25737-15.437597l104.792695-176.795589 104.790648 176.795589c6.42534 10.708899 12.95301 16.075117 19.60757 16.075117 6.628978 0 13.168927-2.14178 19.60757-6.42534 6.844895-4.295839 10.287297-9.31925 10.287297-15.107069 0-5.78782-2.369977-12.761652-7.075139-20.894889l-93.217055-156.218948 74.565253 0c17.147542 0 25.726941-8.579399 25.726941-25.725918 0-16.71366-8.579399-25.063839-25.726941-25.063839l-102.217033 0 0-40.501436 102.217033 0c17.147542 0 25.726941-8.580422 25.726941-25.726941 0-16.712637-8.579399-25.062815-25.726941-25.062815l-102.217033 0 0-84.866876c0-11.57564-1.721201-19.72218-5.136997-24.425296-3.442402-4.730745-10.505261-7.076162-21.213137-7.076162-10.722202 0-17.911952 2.345418-21.545712 7.076162-3.64604 4.703115-5.456269 12.849656-5.456269 24.425296l0 84.866876-100.941993 0c-17.146519 0-25.713638 8.566096-25.713638 25.712615 0 9.42158 2.026146 15.96153 6.106068 19.60757 4.066619 3.632737 10.172687 5.469572 18.319228 5.469572l102.229313 0 0 40.501436-100.941993 0c-17.146519 0-25.713638 8.567119-25.713638 25.713638 0 9.42158 2.026146 15.960507 6.106068 19.606547 4.066619 3.63376 10.172687 5.469572 18.319228 5.469572L465.970152 427.988864z"  horiz-adv-x="1024" />

    
    <glyph glyph-name="gouxuan" unicode="&#58985;" d="M512.892 832.003c-247.061 0-447.346-200.268-447.346-447.346 0-247.062 200.286-447.348 447.346-447.348s447.347 200.286 447.347 447.348C960.238 631.735 759.952 832.003 512.892 832.003zM513.142-5.401c-214.997 0-389.29 174.31-389.29 389.309 0 214.997 174.293 389.308 389.29 389.308 215.017 0 389.29-174.311 389.29-389.308C902.432 168.908 728.158-5.401 513.142-5.401zM715.79 557.51 466.869 280.728l-139 121.982c-14.583 13.331-37.219 12.33-50.567-2.254-13.332-14.584-12.33-37.219 2.254-50.568l166.108-145.764c14.583-13.349 37.22-12.328 50.569 2.254l272.362 302.855c13.332 14.565 12.311 37.219-2.272 50.551C751.775 573.113 729.122 572.111 715.79 557.51z"  horiz-adv-x="1024" />

    
    <glyph glyph-name="iconfontkucunbuzu" unicode="&#58954;" d="M0 555.799585l0-343.594169 1161.983918 0L1161.983918 555.799585 0 555.799585 0 555.799585 0 555.799585zM1133.008883 241.180451l-1104.028848 0L28.980035 526.819549l1104.028848 0L1133.008883 241.180451 1133.008883 241.180451 1133.008883 241.180451zM1133.008883 241.180451M273.716584 558.543338c60.888824 106.77763 175.810215 178.926468 307.280375 178.926468 131.46516 0 246.386551-72.148838 307.275375-178.926468l15.488769 0c-62.182576 114.52139-183.540224 192.446485-322.764144 192.446485S320.410391 673.064728 258.232815 558.543338L273.716584 558.543338 273.716584 558.543338 273.716584 558.543338zM273.716584 558.543338M891.338588 214.949169c-60.038823-109.790134-176.631466-184.413975-310.341629-184.413975S330.689154 105.159035 270.65033 214.949169L255.332812 214.949169c61.250075-117.505143 184.232725-197.940242 325.664148-197.940242 141.431423 0 264.409073 80.435098 325.659148 197.940242L891.338588 214.949169 891.338588 214.949169 891.338588 214.949169zM891.338588 214.949169M139.936421 558.543338C209.610256 733.973552 381.045465 858.328704 580.996959 858.328704c199.941494 0 371.377953-124.355152 441.050538-299.785366l6.230008 0C958.30242 737.239806 784.194707 864.124961 580.996959 864.124961 377.797961 864.124961 203.691499 737.239806 133.716413 558.543338L139.936421 558.543338 139.936421 558.543338 139.936421 558.543338zM139.936421 558.543338M1024.16125 214.949169C955.913667 36.633951 783.018456-90.329954 580.996959-90.329954c-202.021497 0-374.917958 126.962655-443.174291 305.279123l-6.201258 0c68.540084-181.582722 244.106548-311.07913 449.375549-311.07913S961.827424 33.367697 1030.362508 214.949169L1024.16125 214.949169 1024.16125 214.949169 1024.16125 214.949169zM1024.16125 214.949169M1048.91753 214.949169 1048.91753 214.949169c-69.355085-191.368984-252.920309-328.462901-467.920571-328.462901S182.422723 23.580185 113.076388 214.949169l0 0-15.473769 0 0 0c69.828835-199.698994 259.869067-342.949169 483.39434-342.949169 223.520273 0 413.560505 143.251425 483.39434 342.949169L1048.91753 214.949169 1048.91753 214.949169 1048.91753 214.949169zM1048.91753 214.949169M99.531371 558.543338l15.581269 0C185.957727 747.024818 368.051699 881.507482 580.996959 881.507482c212.94026 0 395.029232-134.482664 465.879319-322.964144l0 0 15.581269 0C991.08496 755.369828 802.46723 896 580.996959 896 359.521689 896 170.903959 755.369828 99.531371 558.543338L99.531371 558.543338 99.531371 558.543338 99.531371 558.543338zM99.531371 558.543338M201.328996 485.550749l35.663794 3.913755c2.027502-5.073756 4.457505-11.525014 7.285009-19.352524l73.82634 0 0-25.225031L151.095184 444.886949l0-52.407564c0-53.060065-8.697511-92.420113-26.095032-118.078894-7.248759 9.567512-14.570018 18.266272-21.962527 26.095032 12.612515 20.728775 18.772523 51.463813 18.483773 92.201363l0 77.415095L208.504005 470.11198 201.328996 485.550749zM149.356432 333.765564l76.110093 0 0 15.222519-62.845077 0 0 24.78878c5.363757 8.697511 10.655013 17.758772 15.873769 27.182533l-22.180027 0 0 25.225031 35.553793 0c3.045004 5.942507 6.051257 12.031265 9.023761 18.266272l30.227537-4.566256-7.176259-13.700017 88.722608 0 0-25.225031L210.352757 400.959396l-15.331269-27.182533 30.443787 0 0 20.442525 29.140036 0 0-20.442525L309.187877 373.776863l0-24.78878L254.606561 348.988082l0-15.222519 64.802579 0 0-25.226281L254.606561 308.539283l0-31.748789L225.466525 276.790494l0 31.748789-76.110093 0L149.356432 333.765564zM406.477996 275.050492l-29.357536 0L377.12046 363.77435c-6.452508-6.888758-13.193766-13.338766-20.223775-19.352524l-7.393759 33.487541c18.846273 19.715024 33.995041 41.387551 45.448805 65.020079l-44.361304 0 0 27.182533 55.560068 0c2.318753 6.741258 4.385005 13.626267 6.197508 20.658775l31.966289-5.653757c-1.595002-5.075006-3.300004-10.076262-5.110006-15.003768l125.581403 0 0-27.182533L428.331773 442.930697c-6.522508-14.642518-13.807517-28.307535-21.853777-40.9913L406.477996 275.050492zM412.784254 365.730603 481.500588 365.730603l0 11.526264c12.612515 7.97251 23.122528 14.931268 31.532538 20.876275l-87.201356 0 0 25.877532 129.821408 0 0-26.312532c-14.497518-10.437513-28.921285-20.370025-43.273803-29.791286l0-2.175003 53.712566 0 0-26.312532-53.712566 0 0-34.575042c0-8.842511-2.410003-15.401269-7.230009-19.680024-4.821256-4.276255-11.488764-6.633758-20.006274-7.067509-8.51751-0.435001-21.765027-0.870001-39.740049-1.305002-1.885002 11.890015-3.842505 21.383776-5.871257 28.487535 7.320009-0.652501 14.858768-0.978751 22.616278-0.978751 7.610009 0 12.721266 0.743751 15.331269 2.228753 2.608753 1.485002 3.950005 4.257505 4.022505 8.31751l0 24.57253-68.716334 0L412.785504 365.730603zM603.363237 475.981987l199.626494 0 0-29.573786-77.307594 0c-4.783756-12.106265-10.475013-23.776279-17.070021-35.010043l10.438763 0 0-25.442531 21.745027 20.441275c19.571274-17.396271 43.202553-38.853797 70.891337-64.367579l-25.442531-25.007531c-18.483773 21.453776-40.88255 44.142554-67.195082 68.063833l0-110.251385-32.83754 0 0 104.162627c-18.700023-23.268778-41.967551-44.578804-69.802585-63.932578-4.640006 6.667508-12.035015 16.23502-22.181277 28.703785 45.955056 29.935037 77.558845 64.150078 94.811366 102.640125L603.363237 446.408201 603.363237 475.981987zM865.269806 482.070745l164.616451 0 0-88.287608-63.062577 0 0-28.703785 74.803841 0 0-26.746283-74.803841 0 0-29.575036c19.061273-0.36375 48.710059-0.14625 88.938859 0.652501-4.060005-11.887515-7.105009-21.672526-9.133761-29.357536-48.638809 0-81.347599 0.436251-98.12762 1.305002-16.78252 0.870001-30.118787 3.770005-40.012549 8.698761-9.893762 4.930006-17.632522 11.998765-23.213778 21.201276-7.248759-14.640018-16.52627-27.216283-27.835034-37.728796-4.495005 6.958758-10.510013 15.875019-18.047522 26.747533 20.728775 17.831272 32.40004 45.376305 35.011293 82.633851l28.921285-4.132505c-1.305002-12.612515-3.370004-24.39378-6.197508-35.337543 8.04751-17.542521 20.911276-28.343785 38.600047-32.40129l0 82.741351-70.457586 0L865.269806 482.070745zM999.65997 420.74692l0 34.358792-104.162627 0 0-34.358792L999.65997 420.74692z"  horiz-adv-x="1162" />

    
    <glyph glyph-name="daifukuan" unicode="&#59303;" d="M824.636417 68.776665c0-23.424502-19.056008-42.481534-42.479487-42.481534L157.534919 26.295132c-23.423479 0-42.479487 19.057031-42.479487 42.481534l0 628.514667c0 23.423479 19.057031 42.48051 42.479487 42.48051l624.623034 0c23.424502 0 42.48051-19.057031 42.48051-42.48051l0-164.754345 50.442856 0L875.081319 697.291332c0 51.238988-41.684378 92.924389-92.923366 92.924389L157.534919 790.215722c-51.237965 0-92.923366-41.685401-92.923366-92.924389l0-628.513644c0-51.238988 41.685401-92.925413 92.923366-92.925413l624.623034 0c51.237965 0 92.923366 41.685401 92.923366 92.925413L875.081319 231.938746l-50.444902 0L824.636417 68.776665zM898.964262 509.973086 505.754762 509.973086c-32.861432 0-59.595306-29.294187-59.595306-65.301262l0-124.046201c0-36.007075 26.733874-65.300238 59.595306-65.300238l393.2095 0c32.860409 0 59.595306 29.294187 59.595306 65.300238L958.559569 444.671825C958.559569 480.6789 931.824671 509.973086 898.964262 509.973086zM493.533416 444.672848c0 10.260691 6.452969 17.927301 12.221346 17.927301l393.2095-0.001023c5.7694 0 12.221346-7.66661 12.221346-17.927301l0-124.045177c0-10.259668-6.452969-17.927301-12.221346-17.927301L505.754762 302.699346c-5.7694 0-12.221346 7.66661-12.221346 17.927301L493.533416 444.672848zM834.011948 351.818043c17.676591 0 32.058137 14.381545 32.058137 32.058137S851.688539 415.933293 834.011948 415.933293s-32.058137-14.380522-32.058137-32.058137S816.334333 351.818043 834.011948 351.818043z"  horiz-adv-x="1024" />

    
    <glyph glyph-name="gouwuche" unicode="&#58943;" d="M246.4-16a2.1 2.1 0 1 0 134.4 0 2.1 2.1 0 1 0-134.4 0ZM716.8-16a2.1 2.1 0 1 0 134.4 0 2.1 2.1 0 1 0-134.4 0ZM905.6 131.2l-537.6 0c-28.8 0-57.6 25.6-64 54.4l-96 566.4c-9.6 54.4-60.8 96-115.2 96l-22.4 0c-12.8 0-25.6-12.8-25.6-25.6 0-12.8 12.8-25.6 25.6-25.6l22.4 0c28.8 0 57.6-25.6 64-54.4l96-566.4c9.6-54.4 60.8-96 115.2-96l537.6 0c12.8 0 25.6 12.8 25.6 25.6C931.2 118.4 921.6 131.2 905.6 131.2zM880 716.8l-572.8 0c-12.8 0-25.6-12.8-25.6-25.6 0-12.8 12.8-25.6 25.6-25.6l572.8 0c25.6 0 38.4-16 32-41.6l-70.4-281.6c-6.4-32-41.6-57.6-73.6-60.8l-396.8-28.8c-12.8 0-25.6-12.8-22.4-28.8 0-12.8 12.8-25.6 28.8-22.4l396.8 28.8c54.4 3.2 105.6 48 118.4 99.2l70.4 281.6C976 665.6 937.6 716.8 880 716.8z"  horiz-adv-x="1024" />

    
    <glyph glyph-name="shouye" unicode="&#58959;" d="M969.6 393.6l-118.4 112-323.2 300.8c-9.6 9.6-22.4 9.6-32 0l-313.6-297.6c-3.2-3.2-6.4-6.4-9.6-9.6l-118.4-112c-9.6-9.6-9.6-22.4 0-32s22.4-9.6 32 0l83.2 80 0-393.6c0-48 41.6-89.6 92.8-89.6l83.2 0c38.4 0 70.4 28.8 70.4 67.2l0 217.6 99.2 0 99.2 0 0-217.6c0-35.2 32-67.2 70.4-67.2l83.2 0c51.2 0 92.8 38.4 92.8 89.6l0 396.8 80-73.6c9.6-9.6 22.4-9.6 32 0C979.2 371.2 979.2 384 969.6 393.6zM809.6 38.4c0-25.6-19.2-44.8-44.8-44.8l-83.2 0c-12.8 0-22.4 9.6-22.4 22.4L659.2 256c0 12.8-9.6 22.4-22.4 22.4l-121.6 0-121.6 0c-12.8 0-22.4-9.6-22.4-22.4l0-240c0-12.8-9.6-22.4-22.4-22.4l-83.2 0c-25.6 0-44.8 19.2-44.8 44.8l0 438.4 294.4 281.6 294.4-281.6L809.6 38.4z"  horiz-adv-x="1024" />

    
    <glyph glyph-name="fenlei" unicode="&#58920;" d="M673.087327 439.727209c26.571169-26.553773 69.631894-26.553773 96.202039 0l105.806791 105.806791c26.571169 26.553773 26.571169 69.63087 0 96.185666L769.289366 747.526457c-26.570145 26.586518-69.63087 26.586518-96.202039 0L567.279512 641.719666c-26.553773-26.553773-26.553773-69.63087 0-96.185666L673.087327 439.727209zM606.889649 610.983641l96.951099 96.93268c9.722432 9.758248 25.51614 9.758248 35.240619 0l96.93268-96.93268c9.741875-9.724479 9.741875-25.499767 0-35.223223l-96.93268-96.966449c-9.724479-9.724479-25.518187-9.724479-35.240619 0l-96.951099 96.966449C597.16517 585.482851 597.16517 601.259162 606.889649 610.983641zM808.440038 349.695706 634.36235 349.695706c-48.058552 0-87.022982-38.963407-87.022982-87.039355l0-174.078711c0-48.041156 38.96443-87.039355 87.022982-87.039355l174.077687 0c48.073902 0 87.039355 38.997176 87.039355 87.039355L895.479393 262.657374C895.479393 310.7323 856.514963 349.695706 808.440038 349.695706zM843.272357 88.578664c0-19.209504-15.589047-34.814923-34.83232-34.814923L634.36235 53.76374c-19.210527 0-34.815947 15.60542-34.815947 34.814923L599.546404 262.657374c0 19.243273 15.60542 34.814923 34.815947 34.814923l174.077687 0c19.243273 0 34.83232-15.572674 34.83232-34.814923L843.272357 88.578664zM390.668119 349.695706 216.574059 349.695706c-48.058552 0-87.031169-38.963407-87.031169-87.039355l0-174.078711c0-48.041156 38.972617-87.039355 87.031169-87.039355l174.09406 0c48.058552 0 87.022982 38.997176 87.022982 87.039355L477.691101 262.657374C477.691101 310.7323 438.726671 349.695706 390.668119 349.695706zM425.467693 88.578664c0-19.209504-15.579837-34.814923-34.799574-34.814923L216.574059 53.76374c-19.21769 0-34.808784 15.60542-34.808784 34.814923L181.765275 262.657374c0 19.243273 15.59007 34.814923 34.808784 34.814923l174.09406 0c19.219737 0 34.799574-15.572674 34.799574-34.814923L425.467693 88.578664zM390.668119 767.483998 216.574059 767.483998c-48.058552 0-87.031169-38.963407-87.031169-87.039355l0-174.078711c0-48.042179 38.972617-87.039355 87.031169-87.039355l174.09406 0c48.058552 0 87.022982 38.997176 87.022982 87.039355L477.691101 680.444643C477.691101 728.520591 438.726671 767.483998 390.668119 767.483998zM425.467693 506.365932c0-19.210527-15.579837-34.815947-34.799574-34.815947L216.574059 471.549985c-19.21769 0-34.808784 15.60542-34.808784 34.815947L181.765275 680.444643c0 19.243273 15.59007 34.814923 34.808784 34.814923l174.09406 0c19.219737 0 34.799574-15.57165 34.799574-34.814923L425.467693 506.365932z"  horiz-adv-x="1024" />

    
    <glyph glyph-name="zhengguifapiao" unicode="&#59184;" d="M682.046464 608.385024 350.445568 608.385024c-30.758912 0-55.7824-21.74976-55.7824-48.484352L294.663168 181.44256c0-9.344 8.495104-16.945152 18.935808-16.945152 0.72704 0 1.473536 0.043008 2.26304 0.132096 4.99712-0.556032 9.807872 0.627712 13.754368 3.2768l54.02624 36.421632 54.027264-36.424704c3.308544-2.224128 7.251968-3.39968 11.404288-3.39968 4.150272 0 8.095744 1.174528 11.416576 3.403776l56.162304 37.8624 54.356992-36.64384c3.309568-2.223104 7.252992-3.398656 11.404288-3.398656s8.09472 1.174528 11.41248 3.402752l53.978112 36.393984 55.067648-37.12512c3.323904-2.240512 7.289856-3.451904 11.464704-3.403776 1.490944-0.329728 3.017728-0.495616 4.55168-0.495616 10.441728 0 18.936832 7.601152 18.936832 16.945152L737.825792 559.900672c0.001024 13.083648-5.909504 25.34912-16.644096 34.537472C710.67648 603.43296 696.776704 608.385024 682.046464 608.385024zM698.458112 551.073792l0-329.010176-40.716288 26.099712c-3.28192 2.098176-7.184384 3.207168-11.286528 3.207168-4.102144 0-8.004608-1.108992-11.291648-3.21024l-53.936128-34.579456-54.306816 34.819072c-3.28192 2.096128-7.18336 3.204096-11.285504 3.204096s-8.003584-1.107968-11.291648-3.209216l-56.114176-35.976192-53.98528 34.613248c-3.280896 2.098176-7.184384 3.207168-11.285504 3.207168s-8.004608-1.108992-11.291648-3.21024l-39.66976-25.432064L331.997184 551.073792c0 7.486464 8.00768 13.577216 17.849344 13.577216l330.76224 0C690.451456 564.649984 698.458112 558.560256 698.458112 551.073792zM616.379392 433.174528 382.40768 433.174528c-9.095168 0-16.495616-6.872064-16.495616-15.320064l0-11.259904c0-8.448 7.399424-15.322112 16.495616-15.322112l233.971712 0c9.094144 0 16.493568 6.873088 16.493568 15.322112l0 11.259904C632.87296 426.302464 625.473536 433.174528 616.379392 433.174528zM385.47968 486.124544l168.510464 0c9.094144 0 16.492544 6.872064 16.492544 15.320064l0 11.259904c0 8.448-7.3984 15.322112-16.492544 15.322112L385.47968 528.026624c-9.095168 0-16.495616-6.873088-16.495616-15.322112l0-11.259904C368.984064 492.997632 376.383488 486.124544 385.47968 486.124544zM616.379392 342.418432 382.40768 342.418432c-9.095168 0-16.495616-6.872064-16.495616-15.320064l0-11.261952c0-8.448 7.399424-15.320064 16.495616-15.320064l233.971712 0c9.094144 0 16.493568 6.872064 16.493568 15.320064l0 11.261952C632.87296 335.545344 625.473536 342.418432 616.379392 342.418432zM844.803072 634.075136c-14.179328-9.316352-18.121728-28.363776-8.8064-42.543104 41.315328-62.88384 63.154176-136.085504 63.154176-211.688448 0-103.123968-40.158208-200.075264-113.077248-272.99328C713.155584 33.932288 616.205312-6.22592 513.082368-6.22592c-66.768896 0-132.555776 17.3056-190.249984 50.046976-55.985152 31.770624-103.586816 77.461504-137.659392 132.134912-0.130048 0.208896-0.262144 0.41472-0.397312 0.620544-41.319424 62.88896-63.159296 136.090624-63.159296 211.69152 0 103.122944 40.158208 200.073216 113.077248 272.992256 72.91904 72.91904 169.869312 113.077248 272.992256 113.077248 48.837632 0 96.41984-8.987648 141.42464-26.714112 26.196992-10.318848 51.341312-23.581696 74.735616-39.419904 14.050304-9.511936 33.148928-5.832704 42.660864 8.215552 9.511936 14.04928 5.833728 33.148928-8.215552 42.660864-27.121664 18.363392-56.280064 33.741824-86.664192 45.709312C619.42272 825.352192 564.265984 835.77856 507.687936 835.77856c-60.399616 0-119.00928-11.836416-174.199808-35.17952-53.293056-22.541312-101.147648-54.80448-142.236672-95.893504s-73.352192-88.943616-95.89248-142.236672c-23.344128-55.191552-35.180544-113.800192-35.180544-174.200832 0-87.501824 25.257984-172.254208 73.048064-245.121024 39.456768-63.19616 94.528512-116.01408 159.2832-152.762368 66.921472-37.977088 143.194112-58.05056 220.573696-58.05056 60.399616 0 119.00928 11.836416 174.199808 35.17952 53.292032 22.541312 101.147648 54.803456 142.236672 95.891456 41.088 41.088 73.351168 88.943616 95.89248 142.236672 23.344128 55.190528 35.17952 113.801216 35.17952 174.201856 0 87.626752-25.327616 172.4928-73.244672 245.425152C878.029824 639.448064 858.983424 643.391488 844.803072 634.075136z"  horiz-adv-x="1024" />

    
    <glyph glyph-name="zhengpinbaozhang" unicode="&#58895;" d="M512.363069 755.468653c-128.273366 0-311.556826-66.189208-364.755833-66.189208l0-448.210574c6.542536-54.933466 52.667479-219.140306 364.755833-295.44922 312.016591 76.308914 357.610006 240.515754 364.023614 295.44922l0 448.210574C823.92476 689.279445 640.598729 755.468653 512.363069 755.468653L512.363069 755.468653 512.363069 755.468653zM832.153103 254.353419c-5.640034-48.263217-45.701666-192.528639-319.832605-259.582644C238.123878 61.82478 197.576938 206.090202 191.842032 254.353419l0 393.804986c46.737963 0 207.789692 58.159123 320.478466 58.159123 112.675395 0 273.727123-58.159123 319.832605-58.159123L832.153103 254.353419 832.153103 254.353419 832.153103 254.353419zM832.153103 254.353419M308.649234 521.176762l0 40.13826 395.905555 0 0-40.13826-156.904109 0 0-107.643516 147.781777 0 0-38.313794-147.781777 0 0-158.728575 167.850907 0 0-36.489328L294.048638 180.001549l0 36.489328 49.260592 0 0 209.813634 56.558458 0 0-209.813634 83.925453 0 0 304.685885L308.649234 521.176762 308.649234 521.176762zM308.649234 521.176762"  horiz-adv-x="1024" />

    
    <glyph glyph-name="icon2-copy" unicode="&#58884;" d="M641.685 231.362h-364.464c-7.652 0-14.030-2.55-19.133-7.651-5.102-5.103-7.653-11.318-7.653-18.644s2.55-13.703 7.653-19.132 11.481-8.143 19.133-8.143l-0.029-0.002h364.464c5.102 0 9.571 1.277 13.405 3.827 3.84 2.55 6.867 5.901 9.094 10.042 2.221 4.144 3.333 8.45 3.333 12.919 0.001 7.651-2.387 14.031-7.162 19.134-4.778 5.1-10.992 7.651-18.643 7.651zM641.685 392.075l-364.555-0.030c-7.652 0-14.031-2.55-19.133-7.653-5.102-5.102-7.652-11.479-7.652-19.133 0-4.468 1.277-8.775 3.828-12.917 2.55-4.145 5.745-7.491 9.58-10.042 3.837-2.55 8.306-3.827 13.408-3.827h364.463c3.818 0 7.327 0.797 10.531 2.388s5.919 3.509 8.142 5.754c2.225 2.245 3.981 4.961 5.266 8.144 1.285 3.181 1.927 6.693 1.927 10.53 0.001 7.652-2.387 14.031-7.162 19.133-4.777 5.101-10.991 7.652-18.642 7.652zM641.685 552.784h-364.464c-7.652-0.001-14.030-2.55-19.133-7.653-5.102-5.101-7.653-11.314-7.653-18.641 0-7.327 2.55-13.705 7.653-19.132 5.102-5.429 11.481-8.143 19.133-8.143h364.464c7.652-0.001 13.868 2.714 18.642 8.143 4.775 5.429 7.162 11.806 7.162 19.132 0.001 7.327-2.387 13.539-7.162 18.641-4.777 5.104-10.991 7.653-18.642 7.653zM413.994 668.069c2.533-2.246 5.398-4.163 8.604-5.755 3.203-1.591 6.398-2.387 9.581-2.387h209.506c7.652 0 13.869 2.713 18.642 8.142 4.777 5.429 7.162 11.807 7.163 19.133 0 7.326-2.388 13.539-7.163 18.642-4.777 5.102-10.989 7.652-18.642 7.652l-209.535 0.030c-1.917 0-4.469-0.315-7.652-0.948-12.123-3.837-18.182-12.448-18.182-25.836-0.020-3.838 0.62-7.348 1.927-10.53s3.225-5.9 5.754-8.144zM871.212 681.016c-2.55 6.388-6.213 11.969-10.989 16.745-4.775 4.777-10.357 8.603-16.745 11.481-6.388 2.878-13.084 4.315-20.082 4.316l0.031-0.059h-51.674v53.57c0 14.674-5.102 27.265-15.305 37.774-10.205 10.51-22.325 15.775-36.367 15.796h-519.451c-14.041 0-26.163-5.264-36.367-15.796s-15.306-23.122-15.306-37.774v-642.846c0-14.675 5.102-27.266 15.306-37.773 10.203-10.51 22.325-15.777 36.367-15.797h52.62v-53.571c0-14.675 4.939-27.263 14.817-37.773 9.877-10.51 22.151-15.775 36.826-15.797h518.502c7.020 0 13.711 1.439 20.082 4.316 6.366 2.88 11.948 6.706 16.745 11.479 4.797 4.777 8.461 10.519 10.989 17.235 2.531 6.715 3.807 13.571 3.827 20.571v642.845c0 7.652-1.273 14.674-3.827 21.061zM200.050 121.12v0l-0.001 651.949h524.541v-651.949h-524.54zM823.427 17.080v0h-518.501v53.571h415.186c8.939 0 17.388 2.388 25.347 7.163s14.336 11.316 19.132 19.621c4.796 8.307 7.184 17.235 7.162 26.788v535.703h51.675v-642.847z"  horiz-adv-x="1024" />

    
    <glyph glyph-name="liebiao" unicode="&#58955;" d="M187.392 825.344q28.672 0 48.64-19.456t19.968-48.128l0-52.224q0-28.672-19.968-48.64t-48.64-19.968l-54.272 0q-27.648 0-47.616 19.968t-19.968 48.64l0 52.224q0 28.672 19.968 48.128t47.616 19.456l54.272 0zM889.856 825.344q27.648 0 47.616-19.456t19.968-48.128l0-52.224q0-28.672-19.968-48.64t-47.616-19.968l-437.248 0q-28.672 0-48.64 19.968t-19.968 48.64l0 52.224q0 28.672 19.968 48.128t48.64 19.456l437.248 0zM187.392 506.88q28.672 0 48.64-19.968t19.968-48.64l0-52.224q0-27.648-19.968-47.616t-48.64-19.968l-54.272 0q-27.648 0-47.616 19.968t-19.968 47.616l0 52.224q0 28.672 19.968 48.64t47.616 19.968l54.272 0zM889.856 506.88q27.648 0 47.616-19.968t19.968-48.64l0-52.224q0-27.648-19.968-47.616t-47.616-19.968l-437.248 0q-28.672 0-48.64 19.968t-19.968 47.616l0 52.224q0 28.672 19.968 48.64t48.64 19.968l437.248 0zM187.392 187.392q28.672 0 48.64-19.968t19.968-47.616l0-52.224q0-28.672-19.968-48.64t-48.64-19.968l-54.272 0q-27.648 0-47.616 19.968t-19.968 48.64l0 52.224q0 27.648 19.968 47.616t47.616 19.968l54.272 0zM889.856 187.392q27.648 0 47.616-19.968t19.968-47.616l0-52.224q0-28.672-19.968-48.64t-47.616-19.968l-437.248 0q-28.672 0-48.64 19.968t-19.968 48.64l0 52.224q0 27.648 19.968 47.616t48.64 19.968l437.248 0z"  horiz-adv-x="1024" />

    
    <glyph glyph-name="zhifuchenggong" unicode="&#59040;" d="M50.201435 10.887165 50.201435 819.033263c0 21.261806 17.221871 38.483368 38.483368 38.483368l731.180289 0c21.261497 0 38.483368-17.221871 38.483368-38.483368l0-481.039322 38.482132 0L896.830592 819.033263c0 42.504143-34.461666 76.967046-76.965809 76.967046L88.685112 896.000309c-42.504143 0-76.967046-34.462902-76.967046-76.967046l0-808.146098c0-42.505379 34.461357-76.967046 76.967046-76.967046l481.039322 0L569.724434-27.596512 88.685112-27.596512C67.42207-27.596203 50.201435-10.375568 50.201435 10.887165L50.201435 10.887165zM800.624026 299.510264c-116.892652 0-211.658525-94.764638-211.658525-211.657289s94.765874-211.657289 211.658525-211.657289 211.657289 94.764638 211.657289 211.657289S917.516678 299.510264 800.624026 299.510264L800.624026 299.510264zM944.376851 156.891266l-163.263983-163.263983-0.173674 0.192834-0.038011-0.039247-108.849866 108.849866c-7.52269 7.523927-7.52269 19.702755 0 27.207831 7.523927 7.52269 19.703991 7.52269 27.207831 0l81.814782-81.816018 136.096943 136.095707c7.52269 7.523927 19.702755 7.523927 27.206286 0C951.881927 176.595566 951.900778 164.415501 944.376851 156.891266L944.376851 156.891266zM608.207803 703.583777l-153.932855-188.144517L300.342093 703.583777l-38.483368 0 173.175157-211.657289L281.101336 491.926487c-10.621323 0-19.242302-8.619743-19.242302-19.242302 0-10.621323 8.620979-19.241066 19.242302-19.241066l153.932855 0 0-115.449178L281.101336 337.993941c-10.621323 0-19.242302-8.619743-19.242302-19.242302 0-10.621323 8.620979-19.241066 19.242302-19.241066l153.932855 0 0-192.416223c0-10.621323 8.619743-19.241066 19.241066-19.241066 10.621323 0 19.241066 8.619743 19.241066 19.241066l0 192.416223 153.932855 0c10.621323 0 19.242302 8.619743 19.242302 19.242302 0 10.621323-8.620979 19.241066-19.242302 19.241066L473.516323 337.993941l0 115.449178 153.932855 0c10.621323 0 19.242302 8.619743 19.242302 19.241066 0 10.622559-8.620979 19.242302-19.242302 19.242302L473.516323 491.926487l173.175157 211.657289L608.207803 703.583777 608.207803 703.583777z"  horiz-adv-x="1024" />

    
    <glyph glyph-name="kinds" unicode="&#58893;" d="M360.806 308.535h-287.193c-20.675 0-37.985-7.164-52.217-21.493-14.232-14.28-21.396-31.59-21.396-52.265v-289.020c0-20.627 7.164-38.081 21.396-52.313 14.232-14.232 31.542-21.396 52.217-21.396h287.193c20.627 0 38.225 7.068 52.938 21.396 14.521 14.232 21.781 31.638 21.781 52.313v289.020c0 20.675-7.212 37.985-21.781 52.313-14.713 14.184-32.311 21.445-52.938 21.445zM360.806 836.090h-287.193c-20.675 0-37.985-7.212-52.217-21.445-14.232-14.232-21.396-31.686-21.396-52.361v-287.818c0-20.627 7.164-38.417 21.396-52.938 14.232-14.713 31.542-21.973 52.217-21.973h287.193c20.627 0 38.225 7.26 52.938 21.973 14.521 14.617 21.781 32.311 21.781 52.938v287.818c0 20.723-7.212 38.081-21.781 52.409-14.713 14.184-32.311 21.396-52.938 21.396zM888.313 308.535h-287.241c-20.531 0-38.225-7.164-52.842-21.493-14.617-14.328-22.022-31.638-22.022-52.313v-289.020c0-20.627 7.405-38.081 22.022-52.313 14.713-14.232 32.215-21.396 52.842-21.396h287.241c20.531 0 37.985 7.068 52.217 21.396 14.136 14.232 21.252 31.638 21.252 52.313v289.020c0 20.675-7.020 38.081-21.252 52.313-14.184 14.232-31.686 21.493-52.217 21.493zM1002.027 671.169l-203.050 203.050c-14.617 14.665-31.974 21.781-52.121 21.781s-37.552-7.26-52.169-21.925l-203.483-203.483c-14.569-14.569-22.070-32.215-22.31-52.554-0.337-20.435 6.78-37.84 21.396-52.457l203.050-203.050c14.569-14.569 32.167-21.877 52.986-21.877 20.627 0.048 38.225 7.453 52.794 22.022l203.483 203.483c14.665 14.665 21.829 32.071 21.637 52.457-0.288 20.435-7.645 37.985-22.214 52.554z"  horiz-adv-x="1025" />

    
    <glyph glyph-name="daipingjia-copy" unicode="&#58883;" d="M268.191 429.856c0-25.325 20.53-45.855 45.855-45.855s45.855 20.53 45.855 45.855c0 25.325-20.53 45.855-45.855 45.855-25.325 0-45.855-20.53-45.855-45.855zM466.145 429.856c0-25.325 20.53-45.855 45.855-45.855s45.855 20.53 45.855 45.855c0 25.325-20.53 45.855-45.855 45.855-25.325 0-45.855-20.53-45.855-45.855zM667.423 429.856c0-25.325 20.53-45.855 45.855-45.855s45.855 20.53 45.855 45.855c0 25.325-20.53 45.855-45.855 45.855-25.325 0-45.855-20.53-45.855-45.855zM510.707-34.572l-97.946 101.425h-302.496c-52.156 0-94.587 42.431-94.587 94.586v546.546c0 52.156 42.431 94.587 94.587 94.587h817.199c52.155 0 94.586-42.431 94.586-94.587v-546.546c0-52.155-42.431-94.586-94.586-94.586h-311.728l-105.028-101.425zM110.266 765.314c-31.611 0-57.329-25.718-57.329-57.329v-546.546c0-31.61 25.718-57.328 57.329-57.328h318.31l83.051-86.001 89.056 86.001h326.781c31.61 0 57.328 25.718 57.328 57.328v546.547c0 31.611-25.718 57.329-57.328 57.329h-817.199z"  horiz-adv-x="1024" />

    
    <glyph glyph-name="zonghe" unicode="&#58947;" d="M490.792 500.557c0-52.694-42.73-95.424-95.423-95.424h-235.94c-52.716 0-95.424 42.73-95.424 95.424v235.927c0 52.716 42.709 95.436 95.424 95.436h235.94c52.693 0 95.423-42.721 95.423-95.436v-235.927zM435.719 736.484c0 22.295-18.067 40.372-40.35 40.372h-235.94c-22.282 0-40.372-18.079-40.373-40.372v-235.927c0-22.284 18.089-40.361 40.373-40.361h235.94c22.282 0 40.35 18.079 40.35 40.361v235.927zM958.87 500.557c0-52.694-42.731-95.424-95.425-95.424h-235.938c-52.694 0-95.425 42.73-95.425 95.424v235.927c0 52.716 42.731 95.436 95.425 95.436h235.938c52.694 0 95.425-42.721 95.425-95.436v-235.927zM903.817 736.484c0 22.295-18.089 40.372-40.372 40.372h-235.938c-22.284 0-40.35-18.079-40.35-40.372v-235.927c0-22.284 18.065-40.361 40.35-40.361h235.938c22.284 0 40.372 18.079 40.372 40.361v235.927zM490.792 32.446c0-52.692-42.73-95.423-95.423-95.423h-235.94c-52.716 0-95.424 42.731-95.424 95.423v235.951c0 52.704 42.709 95.423 95.424 95.423h235.94c52.693 0 95.423-42.719 95.423-95.423v-235.951zM435.719 268.397c0 22.281-18.067 40.359-40.35 40.359h-235.94c-22.282 0-40.372-18.078-40.373-40.359v-235.951c0-22.281 18.089-40.35 40.373-40.35h235.94c22.282 0 40.35 18.067 40.35 40.35v235.951zM958.87 32.446c0-52.692-42.731-95.423-95.425-95.423h-235.938c-52.694 0-95.425 42.731-95.425 95.423v235.951c0 52.704 42.731 95.423 95.425 95.423h235.938c52.694 0 95.425-42.719 95.425-95.423v-235.951zM903.817 268.397c0 22.281-18.089 40.359-40.372 40.359h-235.938c-22.284 0-40.35-18.078-40.35-40.359v-235.951c0-22.281 18.065-40.35 40.35-40.35h235.938c22.284 0 40.372 18.067 40.372 40.35v235.951z"  horiz-adv-x="1024" />

    
    <glyph glyph-name="lipin" unicode="&#58994;" d="M932.878 533.845c0 33.203-26.92 60.124-60.128 60.124h-42.215c26.477 26.173 43.275 60.628 43.275 102.84 0 52.084-29.915 108.656-113.88 108.656-110.47 0-202.776-117.637-246.136-183.58-43.395 65.943-138.512 183.58-248.989 183.58-83.965 0-113.877-56.572-113.877-108.657 0-42.212 17.245-76.666 44.264-102.839h-43.943c-33.203 0-60.128-26.92-60.128-60.124v-179.97h60.656v-331.216c0-33.203 26.92-60.124 60.124-60.124h600.962c33.203 0 60.122 26.914 60.122 60.124V353.875h59.893v179.97zM759.932 745.339c37.166 0 53.752-15.621 53.752-48.53 0-66.79-74.539-102.81-144.646-102.81H567.252c42.72 63.44 117.904 151.34 192.68 151.34z m-495.126 0c74.776 0 152.812-87.9 195.524-151.341H358.513c-70.1 0-147.46 36.964-147.46 103.75 0 32.913 16.587 47.59 53.753 47.59z m607.945-331.33H542.064V533.844H872.75v-119.837zM151.25 533.844h330.687v-119.837H151.25V533.845z m60.652-179.97h270.034v-331.216H211.901V353.875z m600.963-331.216h-270.8V353.875h270.8v-331.216z m0 0"  horiz-adv-x="1024" />

    
    <glyph glyph-name="tuijian" unicode="&#58885;" d="M927.535838 467.836121l-0.015515 0.019394c-17.781657 28.595717-48.783515 46.952727-80.946424 47.912081l-217.995636 1.035636 2.713858 7.915313a375.275313 375.275313 0 0 1 20.733414 123.142465c0 21.335919-1.900606 42.669253-5.787151 65.236041l-3.836121 16.548202c-10.554182 45.732202-50.667313 77.672727-97.586425 77.672727-55.266263 0-100.227879-44.986182-100.227878-100.286061 0-3.148283 0.117657-6.261657 0.404686-8.822949-3.003475-109.932606-131.346101-217.866343-176.496484-217.866344l-155.91693-0.071111c-17.074424 0-30.951434-13.896404-30.951434-31.010909l-0.384-436.146424c0-16.779636 14.849293-29.844687 34.527677-30.408404l134.949495 0.272808 5.258343-0.883071 3.638303 0.510707 515.088808-0.135757c16.804202 1.193374 33.358869 6.583596 47.469899 15.574626 14.827313 9.518545 27.627313 23.259798 33.382142 35.816727l6.641777 11.084283c35.475394 84.662303 79.198384 348.828444 79.618586 351.445333l0.628364 9.885738c1.674343 21.950061-3.476687 43.216162-14.911354 61.558949zM228.725657 33.693737l-96.358142-0.320646 0.329697 395.526465 96.028445 0.135757V33.693737zM891.554909 405.462626l-0.243071-1.603232c-7.447273-44.073374-46.127838-267.346747-74.647272-336.058182l-0.457697-0.899879-3.977051-6.314666c-3.748202-7.652848-9.934869-14.589414-17.587717-19.493495-6.648242-4.242101-14.747152-7.056808-21.648808-7.550707l-493.194344 0.188767v397.575758l4.821334 0.94901c81.066667 15.78796 208.009051 142.369616 211.419798 268.51297l-0.373657 5.921616c-0.009051 27.486384 22.039273 49.564444 49.152 49.564444 23.006384 0 42.674424-15.666424 47.86295-38.103919l3.51806-14.972121c3.183192-18.614303 4.754101-37.056646 4.754101-55.192566 0-36.527838-6.101333-72.529455-18.164363-106.987313l-26.219313-75.172202 278.584888-0.060768 7.416243-0.729212c16.855919-0.602505 32.562424-9.672404 41.610343-24.212687 5.871192-9.451313 8.136404-20.359758 7.373576-35.361616z"  horiz-adv-x="1024" />

    
    <glyph glyph-name="daishouhuo" unicode="&#58894;" d="M758.175-21.735c-65.167 0-118.043 52.878-118.043 118.043 0 4.175 0.234 7.886 0.462 11.363h-197.59c-2.783-1.392-5.799-2.090-9.045-2.090h-62.154c-7.651-58.674-57.515-102.739-117.116-102.739-59.369 0-109.463 44.063-117.116 102.739h-61.69c-11.828 0-21.337 9.507-21.337 21.337v298.704c0 3.942 1.159 7.886 3.011 11.13l102.739 167.907c24.583 38.96 60.995 58.674 108.539 58.674h144.018c4.405 71.43 63.315 127.090 134.971 127.090h285.025c74.677 0 135.205-60.759 135.205-135.205v-440.869c0-53.805-39.89-99.026-92.996-105.985 0.462-3.942 0.698-8.117 0.698-12.29 0.462-64.934-52.412-117.812-117.579-117.812zM758.175 171.684c-41.51 0-75.37-33.861-75.37-75.37s33.861-75.37 75.37-75.37 75.37 33.861 75.37 75.37-33.628 75.37-75.37 75.37zM254.692 196.266c-41.51 0-75.37-33.861-75.37-75.603 0-41.51 33.861-75.37 75.37-75.37s75.37 33.861 75.37 75.37c0 41.744-33.861 75.603-75.37 75.603zM254.692 238.707c54.268 0 102.275-38.032 114.797-90.677h43.134l0.234 472.874h-143.785c-32.701 0-55.658-12.29-72.356-38.727l-99.492-162.57v-271.569h42.441c12.755 52.645 60.759 90.677 115.029 90.677zM653.35 150.114c20.409 39.66 60.528 64.006 105.056 64.006s84.649-24.583 105.056-64.006c34.784 0.698 62.849 29.221 62.849 64.241v440.869c0 51.023-41.51 92.765-92.765 92.765h-285.253c-51.023 0-92.765-41.51-92.765-92.765v-505.106h197.824zM174.218 400.117c-11.828 0-21.337 9.507-21.337 21.337s9.507 21.337 21.337 21.337h101.345v101.345c0 11.828 9.507 21.337 21.337 21.337s21.337-9.507 21.337-21.337v-122.681c0-11.828-9.507-21.337-21.337-21.337h-122.681z"  horiz-adv-x="1024" />

    
    <glyph glyph-name="jifen" unicode="&#58887;" d="M728.138 492.855c-169.238 0-257.784-66.122-257.784-131.451v-340.164c0-65.328 88.546-131.451 257.784-131.451 163.965 0 252.731 62.737 257.626 126.015l0.32 345.613c-0.128 65.314-88.766 131.437-257.941 131.437zM728.138 305.134c-125.697 0-182.619 43.159-182.619 56.272s56.92 56.286 182.619 56.286c125.731 0 182.651-43.176 182.651-56.286s-56.92-56.272-182.651-56.272zM728.138 135.101c-125.697 0-182.619 43.176-182.619 56.286v74.483c46.434-23.502 109.362-35.898 182.619-35.898 73.131 0 136.089 12.396 182.651 35.898v-74.483c0.001-13.109-56.92-56.286-182.651-56.286zM910.789 95.74v-74.497c0-13.109-56.92-56.272-182.651-56.272-125.697 0-182.619 43.159-182.619 56.272v74.483c46.434-23.502 109.362-35.898 182.619-35.898 73.161 0 136.089 12.396 182.651 35.914zM122.207 440.343v151.775c69.699-43.7 185.576-70.652 305.14-70.652 119.628 0 235.505 26.984 305.14 70.762v-64.904c27.262-0.19 52.323-2.14 75.291-5.504v183.269c0 119.26-195.968 183.62-380.336 183.62-184.398 0-380.399-64.358-380.399-183.62v-529.36c0-119.26 195.937-183.62 380.301-183.62h4.070v75.165h-4.070c-186.274 0-305.14 64.231-305.14 108.455v151.646c69.793-43.764 185.67-70.762 305.14-70.762h4.070v75.291h-4.070c-186.275-0.001-305.14 64.23-305.14 108.439zM427.345 813.544c186.274 0 305.14-64.231 305.14-108.455s-118.866-108.455-305.14-108.455-305.14 64.231-305.14 108.455 118.866 108.455 305.14 108.455z"  horiz-adv-x="1024" />

    
    <glyph glyph-name="tubiaozhizuomoban" unicode="&#58973;" d="M232.099 496.222h560l-280 336-280-336zM792.099 272.222h-560l280-336 280 336z"  horiz-adv-x="1024" />

    
    <glyph glyph-name="kefudianhua1" unicode="&#58948;" d="M757.76 265.216c-14.336 14.336-30.72 22.528-47.104 22.528-14.336 0-30.72-6.144-45.056-18.432l-4.096-4.096c-14.336-12.288-28.672-24.576-40.96-36.864-16.384-16.384-34.816-18.432-45.056-18.432-8.192 0-14.336 2.048-22.528 4.096-14.336 6.144-30.72 10.24-47.104 20.48-49.152 28.672-88.064 67.584-122.88 120.832-18.432 28.672-30.72 57.344-34.816 86.016-6.144 34.816 10.24 57.344 24.576 67.584 12.288 8.192 22.528 20.48 34.816 30.72l10.24 8.192c26.624 24.576 28.672 61.44 4.096 88.064-12.288 12.288-20.48 22.528-30.72 32.768-12.288 14.336-28.672 20.48-47.104 20.48-14.336 0-30.72-6.144-43.008-16.384-6.144-6.144-12.288-12.288-18.432-16.384-10.24-8.192-18.432-16.384-28.672-26.624-18.432-16.384-28.672-34.816-32.768-63.488-4.096-38.912 4.096-79.872 26.624-131.072 38.912-88.064 96.256-167.936 180.224-241.664 65.536-59.392 124.928-94.208 190.464-112.64 18.432-6.144 34.816-8.192 49.152-8.192 10.24 0 20.48 2.048 30.72 4.096 30.72 14.336 57.344 34.816 79.872 59.392l4.096 4.096c26.624 24.576 28.672 59.392 4.096 86.016-8.192 14.336-18.432 24.576-28.672 38.912zM512 896C229.376 896 0 666.624 0 384s229.376-512 512-512 512 229.376 512 512S794.624 896 512 896z m294.912-778.24c-4.096-2.048-32.768-40.96-94.208-69.632-14.336-6.144-30.72-8.192-45.056-8.192-20.48 0-38.912 4.096-59.392 8.192-77.824 22.528-145.408 65.536-204.8 120.832-79.872 71.68-145.408 155.648-188.416 253.952-20.48 47.104-34.816 96.256-28.672 149.504 4.096 34.816 16.384 63.488 45.056 88.064 16.384 14.336 32.768 28.672 47.104 43.008 20.48 16.384 43.008 26.624 65.536 26.624 26.624 0 51.2-10.24 73.728-32.768 10.24-10.24 20.48-22.528 30.72-34.816 36.864-43.008 32.768-102.4-8.192-139.264-14.336-14.336-30.72-28.672-47.104-40.96-12.288-10.24-14.336-20.48-12.288-32.768 4.096-26.624 16.384-49.152 30.72-71.68 28.672-45.056 65.536-81.92 110.592-110.592 12.288-8.192 26.624-12.288 40.96-16.384 4.096-2.048 6.144-2.048 10.24-2.048 8.192 0 14.336 4.096 20.48 10.24 14.336 14.336 30.72 26.624 47.104 40.96 20.48 18.432 45.056 26.624 67.584 26.624 26.624 0 53.248-12.288 73.728-34.816 10.24-10.24 20.48-22.528 30.72-34.816 36.864-45.056 34.816-100.352-6.144-139.264z"  horiz-adv-x="1024" />

    
    <glyph glyph-name="changyongfenlei" unicode="&#59006;" d="M406.588235 488.538353a79.435294 79.435294 0 0 0-79.435294-79.435294H79.435294A79.435294 79.435294 0 0 0 0 488.538353v247.717647a79.435294 79.435294 0 0 0 79.435294 79.435294h247.717647A79.435294 79.435294 0 0 0 406.588235 736.256v-247.717647zM406.588235-38.520471a79.435294 79.435294 0 0 0-79.435294-79.435294H79.435294A79.435294 79.435294 0 0 0 0-38.520471v247.717647a79.435294 79.435294 0 0 0 79.435294 79.435295h247.717647A79.435294 79.435294 0 0 0 406.588235 209.197176v-247.717647zM752.986353 363.008a78.863059 78.863059 0 0 0-56.169412 23.190588L515.328 567.717647a78.863059 78.863059 0 0 0-23.190588 56.169412c0 21.278118 8.237176 41.216 23.190588 56.169412L696.832 861.560471c14.953412 14.953412 34.891294 23.190588 56.169412 23.190588s41.216-8.237176 56.169412-23.190588L990.674824 680.056471a79.510588 79.510588 0 0 0 0-112.323765L809.155765 386.198588a78.863059 78.863059 0 0 0-56.169412-23.190588z m0 489.968941c-12.784941 0-24.741647-4.939294-33.701647-13.884235L537.795765 657.588706c-8.944941-8.944941-13.884235-20.916706-13.884236-33.701647s4.939294-24.741647 13.884236-33.701647l181.504-181.519059c17.904941-17.904941 49.498353-17.904941 67.403294 0l181.519059 181.519059a47.721412 47.721412 0 0 1 0 67.403294L786.688 839.092706a47.254588 47.254588 0 0 1-33.701647 13.884235zM933.647059-38.520471a79.435294 79.435294 0 0 0-79.435294-79.435294h-247.717647A79.435294 79.435294 0 0 0 527.058824-38.520471v247.717647a79.435294 79.435294 0 0 0 79.435294 79.435295h247.717647A79.435294 79.435294 0 0 0 933.647059 209.197176v-247.717647z"  horiz-adv-x="1024" />

    
    <glyph glyph-name="guanyu" unicode="&#58880;" d="M595.563 901.841c-285.964 0-517.841-231.877-517.841-517.841s231.852-517.841 517.841-517.841 517.841 231.877 517.841 517.841c0 285.964-231.877 517.841-517.841 517.841zM595.563-82.059c-256.966 0-466.059 209.094-466.059 466.059s209.094 466.059 466.059 466.059 466.059-209.094 466.059-466.059-209.094-466.059-466.059-466.059zM676.834 710.69c-19.366 14.188-48.675 5.593-65.478-19.211-16.829-24.778-14.732-56.39 4.608-70.629 19.315-14.188 48.675-5.593 65.478 19.211 16.829 24.802 14.758 56.416-4.608 70.629zM620.159 135.216c0 0-66.229-61.463-49.763 16.181 0 0 5.229 34.020 23.327 105.168 14.473 56.882 38.085 137.273 66.877 244.305 0 0 15.069 53.904-48.235 43.705-27.393-4.427-60.973-22.784-88.65-43.705-36.221-27.365-64.236-59.263-73.115-71.173l21.774-19.443c0 0 122.748 135.849 91.783 22.654-31.017-113.169-80.909-280.034-79.329-347.869 1.529-67.86 85.569-27.522 85.569-27.522s22.577 14.421 48.209 35.626c33.891 27.987 73.115 66.333 73.115 66.333l-20.194 21.049-51.367-45.309z"  horiz-adv-x="1195" />

    
    <glyph glyph-name="baodan" unicode="&#58925;" d="M559.786667-9.671111c-27.306667-20.48-59.164444-34.133333-93.297778-43.235556h-2.275556c-9.102222-2.275556-18.204444-4.551111-27.306666-9.102222-68.266667 22.755556-129.706667 61.44-182.044445 106.951111-45.511111 40.96-84.195556 88.746667-118.328889 138.808889-34.133333 52.337778-59.164444 109.226667-77.368889 168.391111V695.751111c54.613333 0 111.502222 6.826667 166.115556 20.48 45.511111 11.377778 88.746667 27.306667 129.706667 50.062222C382.293333 782.222222 409.6 800.426667 432.355556 823.182222c20.48-22.755556 43.235556-40.96 70.542222-56.888889 38.684444-22.755556 79.644444-38.684444 122.88-50.062222 52.337778-13.653333 106.951111-20.48 161.564444-20.48v-227.555555c0-13.653333 11.377778-25.031111 25.031111-25.031112s25.031111 11.377778 25.031111 25.031112V720.782222c0 6.826667-2.275556 13.653333-6.826666 18.204445-4.551111 4.551111-11.377778 6.826667-18.204445 6.826666H796.444444c-52.337778 0-104.675556 4.551111-157.013333 18.204445-38.684444 9.102222-75.093333 25.031111-109.226667 43.235555-29.582222 15.928889-54.613333 36.408889-72.817777 61.44L455.111111 873.244444h-2.275555l-6.826667 6.826667c-11.377778 9.102222-25.031111 6.826667-34.133333-4.551111-22.755556-27.306667-52.337778-50.062222-84.195556-65.991111-36.408889-20.48-75.093333-34.133333-116.053333-45.511111-52.337778-11.377778-106.951111-18.204444-159.288889-18.204445h-15.928889c-6.826667 0-13.653333-2.275556-18.204445-6.826666-4.551111-4.551111-6.826667-11.377778-6.826666-18.204445v-375.466666c18.204444-65.991111 47.786667-127.431111 84.195555-186.595556C131.982222 104.106667 172.942222 54.044444 223.004444 8.533333c59.164444-52.337778 129.706667-93.297778 204.8-120.604444h4.551112c2.275556 0 4.551111-2.275556 9.102222-2.275556 2.275556 0 4.551111 0 6.826666 2.275556 13.653333 4.551111 25.031111 9.102222 34.133334 11.377778 38.684444 11.377778 77.368889 27.306667 109.226666 52.337777M773.688889 406.755556c-145.635556 0-261.688889-116.053333-261.688889-261.688889S628.053333-116.622222 773.688889-116.622222 1035.377778-0.568889 1035.377778 145.066667 919.324444 406.755556 773.688889 406.755556z m0-477.866667c-118.328889 0-216.177778 97.848889-216.177778 216.177778s97.848889 216.177778 216.177778 216.177777 216.177778-97.848889 216.177778-216.177777-97.848889-216.177778-216.177778-216.177778zM605.297778 297.528889c-9.102222-9.102222-15.928889-18.204444-25.031111-29.582222-29.582222 20.48-54.613333 47.786667-72.817778 77.368889h116.053333v43.235555h-143.36v56.888889H432.355556v-56.888889h-145.635556v-43.235555h116.053333c-31.857778-47.786667-75.093333-86.471111-125.155555-113.777778l-2.275556-2.275556 2.275556-2.275555 4.551111-4.551111c11.377778-13.653333 18.204444-25.031111 25.031111-31.857778v-2.275556h2.275556c52.337778 29.582222 95.573333 72.817778 125.155555 125.155556V167.822222h47.786667v152.462222c18.204444-34.133333 43.235556-65.991111 75.093333-88.746666-22.755556-43.235556-34.133333-93.297778-34.133333-143.36m-223.004445 537.031111l-43.235555 9.102222c-18.204444-77.368889-47.786667-152.462222-88.746667-223.004444 2.275556-6.826667 2.275556-15.928889 4.551111-29.582223l6.826667-27.306666c15.928889 22.755556 29.582222 47.786667 40.96 70.542222V167.822222h40.96V515.982222c15.928889 34.133333 29.582222 70.542222 38.684444 109.226667z m29.582223-177.493333h257.137777v166.115555H329.955556v-166.115555z m40.96 125.155555H546.133333v-84.195555h-175.217777v84.195555zM694.044444 108.657778h50.062223v-18.204445h-31.857778c-11.377778 0-20.48-9.102222-20.48-22.755555 0-11.377778 9.102222-20.48 20.48-20.48h34.133333v-31.857778c0-11.377778 9.102222-20.48 20.48-20.48 4.551111 0 11.377778 2.275556 15.928889 6.826667 4.551111 4.551111 6.826667 9.102222 6.826667 15.928889v31.857777h40.96c11.377778 0 20.48 9.102222 20.48 22.755556 0 11.377778-9.102222 20.48-20.48 20.48h-40.96v15.928889H841.955556c11.377778 0 22.755556 9.102222 22.755555 20.48s-9.102222 22.755556-20.48 22.755555h-40.96l47.786667 68.266667c2.275556 4.551111 4.551111 11.377778 4.551111 15.928889 0 4.551111-4.551111 11.377778-9.102222 13.653333-4.551111 2.275556-6.826667 4.551111-11.377778 4.551111-6.826667 0-13.653333-4.551111-18.204445-9.102222L773.688889 181.475556l-45.511111 63.715555c-4.551111 4.551111-11.377778 9.102222-15.928889 9.102222-4.551111 0-9.102222-2.275556-11.377778-4.551111-9.102222-6.826667-11.377778-20.48-4.551111-29.582222l47.786667-65.991111H705.422222c-11.377778 0-20.48-11.377778-20.48-22.755556-11.377778-11.377778-2.275556-20.48 9.102222-22.755555z"  horiz-adv-x="1046" />

    
    <glyph glyph-name="nav-order" unicode="&#58993;" d="M681.984 754.688h-330.752v36.864h330.752v-36.864zM788.48-128h-542.72c-84.992 0-153.6 69.632-153.6 154.624v611.328c0 84.992 68.608 154.624 153.6 154.624h15.36v-36.864h-15.36c-64.512 0-116.736-53.248-116.736-117.76v-611.328c0-64.512 52.224-117.76 116.736-117.76h542.72c64.512 0 116.736 53.248 116.736 117.76v611.328c0 64.512-52.224 117.76-116.736 117.76h-15.36v36.864h15.36c84.992 0 153.6-69.632 153.6-154.624v-611.328c0-84.992-69.632-154.624-153.6-154.624zM728.064 675.84c-34.816 0-63.488 27.648-63.488 61.44v97.28c0 33.792 28.672 61.44 63.488 61.44s63.488-27.648 63.488-61.44v-97.28c0-33.792-28.672-61.44-63.488-61.44zM728.064 859.136c-14.336 0-26.624-11.264-26.624-24.576v-97.28c0-13.312 12.288-24.576 26.624-24.576s26.624 11.264 26.624 24.576v97.28c0 13.312-12.288 24.576-26.624 24.576zM306.176 675.84c-34.816 0-63.488 27.648-63.488 61.44v97.28c0 33.792 28.672 61.44 63.488 61.44s63.488-27.648 63.488-61.44v-97.28c0-33.792-27.648-61.44-63.488-61.44zM306.176 859.136c-14.336 0-26.624-11.264-26.624-24.576v-97.28c0-13.312 12.288-24.576 26.624-24.576s26.624 11.264 26.624 24.576v97.28c1.024 13.312-11.264 24.576-26.624 24.576zM749.568 444.416h-464.896c-3.072 0-6.144 3.072-6.144 6.144s3.072 6.144 6.144 6.144h464.896c3.072 0 6.144-3.072 6.144-6.144 0-4.096-3.072-6.144-6.144-6.144zM749.568 260.096h-464.896c-3.072 0-6.144 3.072-6.144 6.144s3.072 6.144 6.144 6.144h464.896c3.072 0 6.144-3.072 6.144-6.144s-3.072-6.144-6.144-6.144zM749.568 73.728h-464.896c-3.072 0-6.144 3.072-6.144 6.144s3.072 6.144 6.144 6.144h464.896c3.072 0 6.144-3.072 6.144-6.144 0-4.096-3.072-6.144-6.144-6.144z"  horiz-adv-x="1024" />

    
    <glyph glyph-name="ccgl-tuihuoguanli-4" unicode="&#59267;" d="M956.384 378.038c3.319 4.183 5.593 9.233 5.593 14.997v267.172c0 95.823-77.942 173.784-173.765 173.784h-552.418c-95.823 0-173.784-77.968-173.784-173.784v-552.418c0-95.823 77.968-173.791 173.784-173.791h552.418c95.823 0 173.765 77.968 173.765 173.791v70.549c0.005 0.167 0.007 0.363 0.007 0.56 0 13.523-10.962 24.486-24.486 24.486-13.522 0-24.486-10.962-24.486-24.486 0-0.197 0.003-0.394 0.007-0.589l-0.001-70.52c0-68.832-55.993-124.826-124.799-124.826h-552.425c-68.832 0-124.826 55.993-124.826 124.826v552.418c0 68.832 55.993 124.825 124.826 124.825h552.418c68.806 0 124.799-55.993 124.799-124.825v-251.726h-450.093l174.63 174.623c4.222 4.393 6.822 10.372 6.822 16.957 0 13.523-10.962 24.486-24.486 24.486-6.586 0-12.564-2.6-16.966-6.83l-216.169-216.175c-0.096-0.096-0.192-0.121-0.289-0.192-4.433-4.429-7.176-10.549-7.176-17.31 0-0.024 0-0.050 0-0.075 0-6.28 2.39-12.547 7.176-17.332 0.070-0.051 0.167-0.077 0.237-0.141l216.221-216.203c4.419-4.429 10.529-7.169 17.279-7.169 0.008 0 0.018 0 0.026 0 13.519 0.005 24.477 10.965 24.477 24.486 0 6.757-2.737 12.874-7.162 17.303l-174.623 174.61h470.184c11.423-0.007 20.578 7.957 23.281 18.515z"  horiz-adv-x="1024" />

    
    <glyph glyph-name="youhuiquan" unicode="&#58957;" d="M860.821333 456.298667c20.778667 6.058667 36.245333 26.645333 36.245334 48.554666v147.754667c0 30.592-22.016 52.8-52.352 52.8H178.282667c-30.336 0-52.352-22.208-52.352-52.8v-144.597333c0-23.445333 13.248-42.730667 33.152-48.554667 31.210667-12.629333 50.56-42.112 50.56-77.226667 0-33.472-20.757333-65.066667-50.581334-77.205333-19.882667-5.824-33.130667-25.130667-33.130666-48.533333v-147.776c0-30.592 22.016-52.778667 52.352-52.778667h663.338666c15.893333 0 29.717333 5.973333 38.912 16.832 8.533333 10.069333 12.16 23.317333 10.304 37.482667V197.12a21.333333 21.333333 0 1 1-42.666666 0v-88.426667l0.298666-3.456c0.362667-2.24 0.192-4.096-0.448-4.885333-0.746667-0.874667-3.029333-1.770667-6.4-1.770667H178.282667c-4.8 0-9.685333 1.194667-9.685334 10.112v147.776c0 4.608 1.770667 7.445333 2.517334 7.594667l2.496 0.810667c47.061333 18.368 78.677333 65.514667 78.677333 117.333333 0 53.44-30.144 98.410667-78.677333 117.354667l-2.517334 0.832c-0.704 0.170667-2.474667 3.072-2.474666 7.594666V652.586667c0 8.917333 4.885333 10.133333 9.685333 10.133333h666.410667c4.8 0 9.685333-1.194667 9.685333-10.133333v-147.754667c0-3.008-2.901333-6.912-5.632-7.616l-2.496-0.810667c-49.28-19.221333-78.677333-61.930667-78.677333-114.218666 0-51.861333 29.44-97.834667 75.008-117.098667a21.333333 21.333333 0 0 1 16.64 39.296c-29.76 12.586667-48.96 43.114667-48.96 77.802667-0.021333 34.24 18.389333 61.184 50.538666 74.112zM634.624 546.261333a22.570667 22.570667 0 0 1-33.002667 0l-89.664-90.666666-89.642666 90.666666a22.549333 22.549333 0 0 1-32.981334 0 23.36 23.36 0 0 1 0-33.450666l89.6-90.624h-68.394666c-14.144 0-23.573333-9.557333-23.573334-23.893334s9.429333-23.893333 23.573334-23.893333h77.866666v-40.469333h-77.866666c-14.144 0-23.573333-9.536-23.573334-23.829334 0-14.378667 9.429333-23.914667 23.573334-23.914666h77.866666v-54.784c0-14.378667 9.408-23.914667 23.552-23.914667s23.573333 9.536 23.573334 23.914667v54.784h73.173333c14.122667 0 23.552 9.536 23.552 23.914666 0 14.293333-9.408 23.829333-23.552 23.829334h-73.173333V374.4h73.173333c14.122667 0 23.552 9.557333 23.552 23.893333s-9.408 23.893333-23.552 23.893334h-63.701333l89.621333 90.624a23.36 23.36 0 0 1 0 33.450666z"  horiz-adv-x="1024" />

    
    <glyph glyph-name="houtai_yingxiao_mendianziti" unicode="&#58933;" d="M153.6 492.8l25.6 25.6C192 499.2 224 480 256 480s64 19.2 76.8 38.4c12.8-25.6 44.8-38.4 76.8-38.4s57.6 12.8 76.8 38.4c19.2-25.6 44.8-38.4 76.8-38.4s57.6 12.8 76.8 38.4c6.4-6.4 12.8-19.2 25.6-25.6v-70.4h89.6v64c32 12.8 57.6 44.8 57.6 76.8V576l-64 217.6h-672L12.8 576v-12.8c0-32 19.2-64 51.2-76.8V128c0-38.4 38.4-70.4 76.8-70.4h454.4v83.2h-448v352zM1011.2 217.6c-6.4 12.8-19.2 12.8-25.6 6.4L787.2 108.8c-6.4 6.4-19.2 6.4-25.6 6.4h-12.8L569.6 416c0 6.4-6.4 12.8-12.8 12.8h-64c-12.8 0-19.2-6.4-19.2-19.2 0-12.8 6.4-25.6 19.2-25.6H544l166.4-288c-12.8-12.8-19.2-32-19.2-51.2 0-19.2 6.4-38.4 19.2-51.2 12.8-12.8 32-19.2 51.2-19.2 19.2 0 38.4 6.4 51.2 19.2 12.8 12.8 19.2 32 19.2 51.2 0 12.8-6.4 25.6-12.8 38.4L1004.8 192c6.4 6.4 12.8 19.2 6.4 25.6z m-236.8-192c-6.4-6.4-12.8-6.4-19.2-6.4-6.4 0-12.8 6.4-19.2 6.4-6.4 6.4-6.4 12.8-6.4 19.2 0 6.4 6.4 12.8 6.4 19.2 6.4 6.4 12.8 6.4 19.2 6.4 6.4 0 12.8-6.4 19.2-6.4 6.4-6.4 6.4-12.8 6.4-19.2 6.4-6.4 0-12.8-6.4-19.2zM800 384l-57.6-32-25.6 38.4-6.4-6.4-64-32c-6.4-6.4 0-25.6 0-25.6S736 179.2 748.8 153.6c12.8-25.6 38.4-12.8 38.4-12.8s160 96 179.2 102.4c12.8 6.4 6.4 32 6.4 32S876.8 428.8 864 448c-12.8 19.2-25.6 6.4-25.6 6.4l-64-32L800 384z"  horiz-adv-x="1024" />

    
    <glyph glyph-name="duihuan" unicode="&#58896;" d="M512 819.2c-240.64 0-435.2-194.56-435.2-435.2s194.56-435.2 435.2-435.2 435.2 194.56 435.2 435.2-194.56 435.2-435.2 435.2z m0-824.32c-215.04 0-389.12 174.08-389.12 389.12 0 215.04 174.08 389.12 389.12 389.12 215.04 0 389.12-174.08 389.12-389.12 0-215.04-174.08-389.12-389.12-389.12zM693.76 294.4h-320l97.28-97.28c7.68-7.68 7.68-17.92 0-25.6s-17.92-7.68-25.6 0l-128 128c-7.68 7.68-7.68 17.92 0 25.6 2.56 2.56 7.68 5.12 12.8 5.12h363.52c10.24 0 17.92-7.68 17.92-17.92 0-10.24-7.68-17.92-17.92-17.92zM693.76 440.32s0-2.56 0 0h-363.52c-10.24 0-17.92 7.68-17.92 17.92 0 10.24 7.68 17.92 17.92 17.92h320l-97.28 97.28c-7.68 7.68-7.68 17.92 0 25.6s17.92 7.68 25.6 0l128-128c7.68-7.68 7.68-17.92 0-25.6-2.56-5.12-7.68-5.12-12.8-5.12z"  horiz-adv-x="1024" />

    
    <glyph glyph-name="shaixuan" unicode="&#58934;" d="M807.04 693.76a32 32 0 0 1-28.8 16.64H159.36a32 32 0 0 1-31.36-16.64 27.52 27.52 0 0 1 4.48-31.36l223.36-235.52v-265.6a28.8 28.8 0 0 1 17.28-26.24l162.56-74.24a33.92 33.92 0 0 1 30.08 0 28.8 28.8 0 0 1 15.36 24.32l10.88 341.12 210.56 236.16a27.52 27.52 0 0 1 4.48 31.36z m-287.36-560.64l-101.12 46.08V408.32h110.08z m25.6 332.8H401.28l-172.8 186.24h483.2zM661.12 373.76H896V320h-234.88zM661.12 261.76H896v-51.2h-234.88zM661.12 159.36H896v-51.2h-234.88z"  horiz-adv-x="1024" />

    
    <glyph glyph-name="gerenzhongxin" unicode="&#59358;" d="M365.273349 300.800292s-54.401606 42.878861-75.525665 92.158598c0 0-42.236437 16.644614-49.595108 55.04403-7.364512 38.399416-7.364512 78.399051-5.758453 92.158598 1.594379 13.759547 6.716248 41.921066 32.640964 56.638409 0 0-1.279007 94.401241 0 111.682438s7.679883 91.843227 58.244468 131.52165c34.556554 28.155678 88.321577 26.619702 95.686088 25.147967 0 0 23.360861 17.409682 47.673678 15.809463L537.75827 896s18.875576 0 29.767578-4.800657c10.886161-4.800657 28.48273-16.317562 54.389925-44.47908 0 0 57.923256 5.758452 88.000365-14.396131 30.077109-20.160423 43.842497-54.722818 46.721723-107.839577 2.873386-53.122599 3.837021-82.563125 2.873386-102.717707-0.957795-20.160423-1.915591-26.240088-1.915591-26.240088s16.00219-8.95889 24.318657-27.519095c8.322307-18.560204 12.790072-56.638409 10.243738-83.52092-2.558014-26.882511-0.321212-52.474335-62.723913-87.357941 0 0-22.076014-54.722818-67.834101-96.322672 0 0-1.62358-31.677328-1.314049-41.915225s-3.80782-20.808687 0.992837-29.773418c4.800657-8.94721 13.117124-24.9494 41.921065-33.271707 28.809782-8.328147 177.279737-25.609344 234.887622-77.441256 57.596204-51.843592 71.04038-58.881051 85.115299-184.971301h-62.08733s-3.825341 62.087329-21.754802 99.201898c-10.343021 17.929461-37.126249 45.442716-92.164439 65.281928 0 0-30.071269 14.080759-73.598394 21.118218-43.521285 7.0433-131.842862 17.923621-159.99854 69.761373-26.888352 56.323037-13.444176 65.918511-13.444175 94.074189l0.636583 47.352466s32.436556 23.892321 50.763152 52.480175c20.481635 28.587854 27.098599 55.885021 27.098599 55.885021l48.427066 30.077109s3.620934 3.206278 3.620934 21.97673c0 18.776292 0.630743 30.719533-3.620934 47.574395 0 0-24.318657 3.626774-31.566364 28.587854 0 0-2.774102 12.585664-0.426336 22.823562 2.347767 10.237898 3.837021 37.330657 3.410686 48.00073-0.420496 10.670073-1.921431 78.720263-5.542364 102.612583-3.626774 23.892321-8.077018 38.451978-22.005932 43.09495 0 0-12.48054 2.558014-18.636127 2.879226s-14.156682 0.321212-20.715244-0.560661c-6.558562-0.876032-13.928914-0.560661-26.888351 1.518456-7.843409 1.518456-16.8023 7.843409-20.802847 11.11977 0 0-16.165716 14.880869-23.600311 23.115572-7.434594 8.240544-14.804946 11.91988-17.287037 12.801753l-67.746498-14.36693s-9.922526 0.239449-12.562304-0.80011c0 0-2.073276-1.442533-4.561208-3.439887-2.476251-1.997354-9.601314-8.479993-21.43943-11.359218-11.832276-2.879226-22.718438-2.318565-29.201077 0 0 0-21.597116-3.042752-28.395127-4.561209-6.803851-1.518456-15.844504-6.476799-24.482183-16.159876-8.637679-9.677237-23.442624-36.477985-25.042843-71.040379s-1.600219-96.322672-1.442534-101.759913c0.163526-5.443081 0.163526-12.322854 0.642424-14.880868s3.200438-18.244833-2.242643-29.919424c-5.448921-11.680431-11.043847-19.518-29.598211-26.082401 0 0-3.200438-19.202628-1.600219-39.84195 1.600219-20.639321 4.485285-40.799744 5.279555-42.557649 0 0 9.443628-6.722088 20.160423-10.880321s16.959985-6.710407 16.959985-6.710408 5.600767-21.766483 22.397226-45.763927c16.8023-23.991605 36.156773-42.709495 66.876306-57.911576l1.442534-83.836291s5.600767-44.321394-20.31811-70.24027c-25.918876-25.918876-64.639504-48.310261-116.477255-55.03819-51.837752-6.716248-114.877036-22.724278-141.753707-37.114568-26.888352-14.407811-58.244468-38.084044-70.719168-56.965461 0 0-8.322307-17.911941-11.522745-50.243373s-3.200438-49.279737-3.200438-49.279737H2.391568s4.800657 77.756627 11.195693 97.286308c6.406716 19.518 11.843957 39.351371 46.400511 70.713327 34.562394 31.361956 64.324132 46.079299 94.722453 57.596204 30.404161 11.522745 65.924351 17.911941 94.401241 22.403066 28.47689 4.485285 73.919606 12.48054 95.686088 26.882511 21.760642 14.401971 22.724278 19.839212 22.076014 37.441621-0.636583 17.584888-1.600219 55.020669-1.600219 55.020669zM0.797189-62.718073h1022.405622v-65.281927H0.797189v65.281927z"  horiz-adv-x="1024" />

    
    <glyph glyph-name="baodanguanli" unicode="&#59021;" d="M278.203186 688.038598c-2.515287-4.093225-5.253654-8.06263-7.567349-12.264325-7.514137-13.640672-17.987676-24.072255-32.883945-29.114085-8.866948-3.000334-18.10945-4.915963-27.225061-7.15291-9.761318-2.396583-14.005992-12.763698-8.069793-20.696368 3.859911-5.157463 8.15575-10.013051 12.512988-14.770401 10.29446-11.238972 16.116049-24.320918 16.22759-39.609113 0.057305-7.92039-0.671289-15.845896-1.01512-23.131837 0-1.729387 0.102331-2.831488-0.015349-3.90596-1.360997-12.474103 8.28571-17.171078 18.367323-13.424754 6.321986 2.349511 12.512988 5.051039 18.776645 7.56121 14.898315 5.969968 29.848819 6.424316 44.870954 0.430812 7.085372-2.827395 14.112416-5.836939 21.322631-8.305154 10.060123-3.445472 17.823947 2.105964 17.688871 12.576434-0.090051 7.017834-0.071631 14.134929-1.218758 21.020756-2.215458 13.288654 1.50119 25.208125 8.266268 36.028564 5.080715 8.125051 11.643178 15.399735 18.067494 22.586415 6.242168 6.983041 7.619538 19.923772-5.946433 23.582091a218.434941 218.434941 0 0 1-13.966083 3.288906c-14.229073 2.846838-27.064402 8.535397-36.335556 19.967774-6.14086 7.571443-11.397584 15.909341-16.558118 24.210401-6.901177 11.097756-17.930371 13.113669-25.299199 1.121544zM441.732633 208.768023c-74.102718-0.061398-148.20646-0.155543-222.308155 0.105401-11.231809 0.039909-22.918989-10.759041-22.178115-21.965268 0.907673-13.731746 8.9263-22.874987 22.184255-22.877033 37.232996-0.00921 74.467015-0.00307 111.700011-0.00307 37.232996 0 74.467015-0.00614 111.698989 0.018419 1.787716 0.001023 3.656273-0.011256 5.350868 0.467651 11.818163 3.340071 18.436908 13.396101 16.381085 25.923416-1.601474 9.745968-9.444093 18.340717-22.828938 18.330484zM443.838597 409.52535c-37.409005-0.363274-74.824149-0.138146-112.237247-0.138147s-74.828242-0.218988-112.237247 0.135077c-11.144828 0.105401-22.11467-10.794857-22.315238-22.004153-0.239454-13.348006 12.208043-23.026436 22.446221-22.988574 74.825173 0.273223 149.651368 0.143263 224.477565 0.150426 12.533454 0.001023 21.305235 9.454326 21.938661 22.138206 0.601704 12.04943-10.94426 22.815635-22.072715 22.707165zM374.741893 788.879284c44.89142-0.002047 89.783863-0.001023 134.675282-0.001023 45.254693 0.001023 90.512457 0.146333 135.765103-0.119727 9.295714-0.055259 19.015076 9.154497 20.077268 17.718547 2.041496 16.461927-7.834432 27.109428-24.533766 27.110451-87.2389 0.004093-174.478823 0.013303-261.717723-0.044003-3.00238-0.002047-6.056949-0.437975-8.997932-1.079588-11.719926-2.560312-18.070564-12.684904-16.572444-26.150589 1.017166-9.125845 11.162224-17.433044 21.304212-17.434068zM487.331157 565.429119c51.967582-0.242524 103.939257-0.101307 155.908886-0.101307 51.606355 0 103.213733 0.167822 154.818042-0.109494 14.123672-0.076748 23.286356 11.142781 23.639396 22.367427 0.38374 12.20395-11.525498 22.681582-23.350824 22.643719-103.756085-0.330528-207.515241-0.186242-311.272349-0.224104-2.109034-0.001023-4.281513-0.258896-6.317893-0.798178-12.08627-3.200902-17.419741-13.96199-15.927761-24.544 1.665942-11.82328 9.867742-19.174712 22.502503-19.234063zM718.643384 59.489138c1.157359 0.01842 2.998287 1.845021 3.296069 3.119038 1.052982 4.493338 1.588171 9.108448 2.293229 13.682627 3.574409 23.212678 7.140631 46.427402 10.806114 70.276576-13.814634 0-27.555589 0.081864-41.291429-0.154519-1.101077-0.01842-2.842745-2.088568-3.124154-3.445472-1.046842-5.051039-1.515516-10.218736-2.373047-15.312754-2.303462-13.681604-4.725628-27.341718-7.043416-41.020252-1.485841-8.769734-2.869351-17.555841-4.452405-27.284413 14.725376-0.001023 28.310789-0.078795 41.889039 0.139169zM956.526259 742.968651c-0.004093 5.193279-0.298805 10.471492-1.246387 15.564488-4.354168 23.401989-15.626909 42.72815-34.793434 57.137324-14.945387 11.235902-31.732725 17.768689-50.523697 17.854647-45.065382 0.204661-90.13281 0.024559-135.199215 0.104377-8.039093 0.014326-14.855336-2.450818-19.810184-8.852622-5.452175-7.043417-6.706749-14.853289-2.942006-23.12365 3.656273-8.027837 9.809413-12.724813 18.802228-12.739139 44.339858-0.074701 88.682785 0.246617 133.01548-0.293689 7.912204-0.096191 16.582677-2.098801 23.511483-5.814425 15.884782-8.519024 23.52274-22.666232 23.475668-40.98546-0.132006-51.05377-0.046049-102.108562-0.046049-153.162332 0-51.599192-0.041956-103.198383 0.088004-154.794506 0.00921-3.6399 0.905626-7.402597 2.048659-10.892071 3.243881-9.904581 13.088086-15.211447 24.473391-13.55369 9.487072 1.381463 17.857716 10.444886 18.087961 19.809161 0.427742 17.368576 1.038656 34.741245 1.060145 52.112892 0.10847 87.208201 0.070608 174.419472-0.002047 261.628695zM509.557368-14.710794c-114.330932-0.173962-228.66391-0.119727-342.994841-0.056282-6.468318 0.004093-12.938684 0.645706-19.405979 1.039679-22.367427 1.362021-39.185464 23.271006-39.171138 43.080168 0.084934 119.036094 0.041956 238.07321 0.041955 357.110327 0 119.218242 0.00614 238.436484-0.011256 357.655749-0.002047 11.869329 4.52506 21.894659 12.45159 30.426987 9.307993 10.018168 21.37175 14.176884 34.633798 14.247492 43.986817 0.233314 87.976704 0.274246 131.962498-0.050142 10.279111-0.075725 20.903076 8.351202 21.694091 20.774139 0.725524 11.395538-8.072863 24.122397-24.397666 24.097838-44.714388-0.067538-89.430822 0.187265-134.143163-0.210801-8.425903-0.074701-17.149589-1.573845-25.191752-4.130064C85.984327 816.864662 62.394049 782.919549 62.350047 743.77297c-0.26606-237.891062-0.140193-475.783147-0.083911-713.674209 0.001023-4.833075 0.321318-9.743922 1.206478-14.484899 3.815909-20.438495 12.93459-37.933961 28.502147-52.128241 15.855106-14.456247 34.406624-22.775726 55.599296-22.838148 119.420857-0.349971 238.841713-0.177032 358.263593-0.12382 2.821255 0.001023 5.690606 0.452301 8.455579 1.065262 12.870122 2.851954 19.147082 12.590759 16.763802 27.374464-1.296529 8.046257-9.172917 16.344247-21.499663 16.325827zM955.48965 261.700583c-0.001023 14.171768 0.661056 28.386514-0.275269 42.494837-0.477884 7.212262-2.745531 14.793938-6.094812 21.224393-6.599302 12.673647-17.887392 21.314445-30.792307 26.439163-16.937764 6.725168-34.490535 12.024871-52.017724 17.111726-24.122397 7.001461-48.725748 11.984962-73.783447 14.21577-19.311835 1.720178-38.647205 3.505847-58.011228 4.245697-23.781636 0.908696-47.549969-0.422625-71.077825-4.260024-17.720593-2.889817-35.613102-5.290493-52.962236-9.734712-20.222577-5.180999-40.157605-11.741415-59.791781-18.872836-12.845563-4.666276-24.308639-12.178367-32.330336-23.950481-7.329942-10.756995-9.613962-22.931269-9.951653-35.502586-0.390903-14.523785-0.231267-29.068036-0.062422-43.60103 0.388856-33.415041-1.551332-66.892503 3.180436-100.18884 2.393513-16.84055 6.945179-33.008788 13.829983-48.497551 13.174044-29.641087 33.025161-54.700833 55.246255-77.855182 11.44875-11.92868 23.817452-23.139 36.746926-33.449833 21.464871-17.114796 44.430932-31.743982 70.402443-41.73452 21.147646-8.134261 42.516326-12.026918 64.620763-7.92653 18.648732 3.459798 36.725436 9.298783 53.596686 18.592451 24.603351 13.551644 46.584991 30.565133 66.927295 49.699935 21.640879 20.35663 40.565904 43.128263 55.584969 68.799946 6.978948 11.92868 13.377682 24.465205 17.996886 37.451983 8.67252 24.381293 9.715269 50.116421 10.015098 75.743078 0.164752 14.09502-0.716314 28.199249-0.966001 42.301432-0.160659 9.082866-0.030699 18.169825-0.030699 27.253714z m-44.783972-82.171488c-0.158612-24.203238-4.046153-47.827285-16.480347-68.988234-8.520047-14.499226-18.512632-28.132734-27.847231-42.153052l-2.023077 0.994654c-5.26798 20.955264-10.595312 41.896202-15.775288 62.871933-2.628874 10.635221-11.397584 14.82873-22.980387 15.32708-10.341532 0.445138-20.715811 0.13917-31.07474 0.184195-0.324388 0.002047-0.64673 0.236384-1.25355 0.472767v10.105149h72.434729v39.333844h-72.318072v15.350616h62.853513v19.521612c0 17.446347-0.210801 34.896788 0.060376 52.339042 0.254803 16.374946-11.402701 30.766724-28.326139 31.739889-12.987802 0.74599-26.01449 1.006933-39.026852 1.110287-21.811772 0.172939-43.62559 0.11768-65.437362 0.011256-8.080026-0.039909-15.918551-1.296529-23.021319-5.680372-8.729825-5.387707-12.8077-13.966083-13.06455-23.323195-0.675382-24.696472-0.185218-49.423643-0.13917-74.138534 0.001023-0.318248 0.248663-0.636496 0.611937-1.509377 11.903098 0 24.031323 0.208754 36.148292-0.107447 4.564969-0.11768 9.221012-1.036609 13.616112-2.336208 5.65172-1.672082 8.501628-6.520507 8.085142-12.848633h-70.304206v-39.232536c2.13257 0 4.233418 0.041956 6.332219-0.007163 15.007809-0.349971 30.062689-0.104377 45.00603-1.2689 12.736069-0.991584 19.295462-9.42465 19.297508-22.311145 0.004093-25.625634 0.001023-51.250244 0.001024-76.875878v-6.9022c11.477402 0.556679 22.456455 0.665149 33.335222 1.765203 7.474228 0.7552 13.502525 8.918114 13.542435 16.910135 0.073678 14.538111 0.017396 29.078269 0.022512 43.61638 0.002047 6.898107 3.567245 9.345856 9.868765 6.068206 2.612501-1.357927 5.54939-4.15053 6.232958-6.827499 4.480035-17.542538 8.384971-35.233456 12.574387-53.295834h33.942043c-1.061169-1.667989-1.496074-2.781346-2.282996-3.52222-11.177574-10.519588-21.684882-21.925359-33.80799-31.220049-13.500479-10.351766-27.852348-20.032242-43.029002-27.612894-11.202133-5.594415-24.205285-7.853875-36.61492-10.686387-14.706957-3.356444-27.829835 3.095501-41.022298 8.286734-20.662599 8.132214-38.537711 20.73116-55.419194 34.849716-8.080026 6.756891-15.866363 13.864776-23.786753 20.815071l0.671289 1.346671c6.458085 0 12.914124-0.00307 19.37221 0.001024 15.001669 0.00921 23.506367 8.588609 23.50739 23.7274 0.00307 45.434795 0.001023 90.86959 0.001023 136.303363v6.598278h-26.703175c22.595624 31.42778 36.664038 65.24805 44.795229 102.721523h-18.521843c-7.633864 0-15.273868-0.163729-22.900569 0.072655-3.586688 0.11154-5.217838-0.795109-6.335289-4.585436-4.782933-16.226566-10.530844-32.129768-20.367886-46.118363-3.895727-5.54018-8.590656-10.511401-12.635785-15.954367-1.375324-1.849114-2.607384-4.334725-2.650363-6.554276a1101.722152 1101.722152 0 0 1-0.051166-38.706557c0.075725-4.806469 0.944512-9.598612 1.51347-14.969947l16.547885 5.854335v-145.636938c-6.461155 6.993275-12.565177 13.011338-17.9887 19.58915-11.580756 14.045901-22.340821 28.725228-30.093389 45.298696-5.90243 12.618389-10.067286 25.917276-11.364838 39.791261a514.452865 514.452865 0 0 0-2.212388 42.61661c-0.319272 31.255865 0.010233 62.516846-0.181125 93.774757-0.044002 7.226588 2.939959 11.918447 9.341762 14.718213 20.718881 9.057283 42.054815 16.236799 64.263629 20.61041 15.529695 3.057639 31.072693 6.110161 46.704718 8.556887 9.021467 1.412163 18.223037 2.062985 27.361162 2.264576 16.017812 0.354064 32.101115 0.920976 48.059575-0.115633 18.706037-1.213641 37.428448-3.317559 55.920614-6.377245 18.899442-3.1262 37.680181-7.303336 56.228629-12.116968 12.831236-3.328815 25.236777-8.365528 37.724183-12.931521 8.105608-2.964518 11.497868-8.436136 11.360745-17.752316-0.556679-37.608549-0.049119-75.234495-0.296758-112.852254z m-176.376033 71.046103l0.001023 30.135344c14.175861 0 28.110221 0.090051 42.042535-0.044002 5.730515-0.054235 11.483542-0.345877 17.179264-0.963954 10.909467-1.183965 12.235672-7.636934 13.498432-16.256243 0.597611-4.075829 0.102331-8.31027 0.102331-12.871145h-72.823585z"  horiz-adv-x="1024" />

    
    <glyph glyph-name="jiagepaixu-shengxu" unicode="&#58917;" d="M792.09984 272.22016H232.09984l279.99744-336 280.00256 336zM232.09984 496.22016h560l-280.00256 336-279.99744-336z"  horiz-adv-x="1024" />

    
    <glyph glyph-name="jiagepaixu-jiangxu" unicode="&#58918;" d="M232.09984 496.22016h560l-280.00256 336-279.99744-336zM792.09984 272.22016H232.09984l279.99744-336 280.00256 336z"  horiz-adv-x="1024" />

    
    <glyph glyph-name="youhuiquan1" unicode="&#58911;" d="M959.949123-127.948803H63.996608C27.748929-127.948803 0-100.916635 0-65.53931V142.37287h21.349268c36.247679 0 63.996608 27.032167 63.996609 62.409493 0 35.326128-27.748929 62.409492-63.996609 62.409492H0V475.155233C0 510.532558 27.748929 537.615922 63.996608 537.615922h895.952515c36.247679 0 63.996608-27.032167 63.996608-62.409492v-228.800674h-21.349269c-36.247679 0-63.996608-27.032167-63.996608-62.358295s27.748929-62.409492 63.996608-62.409492H1023.945731v-187.177279c0-35.326128-27.748929-62.409492-63.996608-62.409493zM42.64734 102.95096v-168.49027c0-12.492138 8.549947-20.837296 21.349268-20.837296h895.952515c12.799322 0 21.349268 8.345158 21.349268 20.837296v147.652974c-49.098198 10.393049-85.345877 52.016443-85.345876 101.8826 0 49.968552 36.247679 91.540748 85.345876 101.933798V475.20643c0 12.492138-8.549947 20.786098-21.349268 20.786098H63.996608c-12.799322 0-21.349268-8.29396-21.349268-20.786098v-168.439073c49.098198-10.444246 85.345877-52.016443 85.345876-101.933797 0-49.917354-36.247679-91.489551-85.345876-101.8826zM351.366978 717.727976L558.971974 852.274445c11.007417 6.194872 24.267514 4.14698 30.923162-6.194871L817.36468 537.615922H870.353871L625.221263 868.862366c-19.864547 28.977664-61.846322 35.172536-92.769483 16.536724L307.183719 738.462877l44.183259-20.734901zM102.394573 548.008972l120.211229 193.525743a22.424412 22.424412 0 0 0 13.311294 10.444246c6.706845 2.047891 11.161008 0 17.867853-2.047891l373.944981-201.922098H716.762012L276.004572 785.257197a72.392963 72.392963 0 0 1-51.197287 6.246069 62.46069 62.46069 0 0 1-40.036278-29.131256L51.197287 548.008972h51.197286zM652.253431 215.073017c11.109811 0 24.421106-8.29396 24.421105-22.885187a23.806738 23.806738 0 0 0-24.472303-22.885187h-124.665392v-120.723202a23.806738 23.806738 0 0 0-24.472303-22.885187c-11.109811 0-24.472303 8.345158-24.472303 22.885187v120.723202H353.926842c-11.109811 0-24.472303 8.29396-24.472303 22.885187 0 10.393049 8.908328 22.885187 24.472303 22.885187h124.665393v58.262512H353.926842c-11.109811 0-24.472303 8.345158-24.472303 22.936385 0 10.393049 8.908328 22.885187 24.472303 22.885187h91.284762l-109.050221 101.984994a21.605255 21.605255 0 0 0 0 31.230345 25.445051 25.445051 0 0 0 33.329434 0l131.372237-122.82229 131.32104 122.771093a25.445051 25.445051 0 0 0 33.380631 0 21.605255 21.605255 0 0 0 0-31.230345l-109.05022-101.933797h91.233564c11.161008 0 24.472303-8.345158 24.472303-22.885187a23.806738 23.806738 0 0 0-24.472303-22.936385h-124.665392V215.073017h129.119556z"  horiz-adv-x="1024" />

    
    <glyph glyph-name="kehuxinxi-huiyuanjifen" unicode="&#58915;" d="M384 512m-384 0a384 384 0 1 1 768 0 384 384 0 1 1-768 0ZM384 512m-331.093333 0a331.093333 331.093333 0 1 1 662.186666 0 331.093333 331.093333 0 1 1-662.186666 0ZM384 512m-291.84 0a291.84 291.84 0 1 1 583.68 0 291.84 291.84 0 1 1-583.68 0ZM384 658.773333l47.786667-97.28 105.813333-15.36-76.8-75.093333 18.773333-105.813333-95.573333 51.2-95.573333-51.2 18.773333 105.813333-76.8 75.093333 105.813333 15.36zM576.853333 319.146667m-447.146666 0a447.146667 447.146667 0 1 1 894.293333 0 447.146667 447.146667 0 1 1-894.293333 0ZM576.853333 319.146667m-385.706666 0a385.706667 385.706667 0 1 1 771.413333 0 385.706667 385.706667 0 1 1-771.413333 0ZM576.853333 319.146667m-339.626666 0a339.626667 339.626667 0 1 1 679.253333 0 339.626667 339.626667 0 1 1-679.253333 0ZM576.853333 488.106667l56.32-110.933334 122.88-18.773333-88.746666-87.04 20.48-122.88-110.933334 58.026667-109.226666-58.026667 20.48 122.88-88.746667 87.04 122.88 18.773333z"  horiz-adv-x="1024" />

    
    <glyph glyph-name="shangdian" unicode="&#58931;" d="M768 64H192v192H128v-256h704v256h-64zM889.6 524.8c-6.4 19.2-12.8 32-19.2 51.2-38.4 64-70.4 128-102.4 192H192l-6.4-12.8c-6.4-12.8-12.8-19.2-12.8-32-19.2-38.4-38.4-70.4-57.6-108.8l-19.2-38.4c-12.8-25.6-25.6-51.2-32-76.8-6.4-32 0-64 12.8-89.6 25.6-51.2 76.8-83.2 128-89.6S320 339.2 352 384c32-38.4 76.8-64 128-64s96 25.6 128 64c38.4-51.2 108.8-76.8 166.4-57.6 64 12.8 108.8 70.4 115.2 134.4 6.4 19.2 6.4 44.8 0 64z m-102.4-128c-32-19.2-83.2-12.8-108.8 6.4-32 25.6-44.8 70.4-38.4 108.8H576c12.8-44.8-12.8-96-51.2-115.2-44.8-25.6-102.4-6.4-128 32C384 454.4 384 486.4 384 512H320c0-32 0-57.6-19.2-83.2-19.2-38.4-76.8-57.6-115.2-38.4-38.4 19.2-64 70.4-57.6 115.2 6.4 19.2 12.8 38.4 25.6 57.6 19.2 38.4 38.4 70.4 64 108.8 6.4 6.4 12.8 19.2 12.8 25.6l6.4 6.4h486.4c25.6-51.2 57.6-96 83.2-147.2 12.8-19.2 19.2-38.4 25.6-57.6v-19.2c0-32-19.2-64-44.8-83.2z"  horiz-adv-x="1024" />

    


  </font>
</defs>
</svg>
