<?xml version="1.0" standalone="no"?><!DOCTYPE svg PUBLIC "-//W3C//DTD SVG 1.1//EN" "http://www.w3.org/Graphics/SVG/1.1/DTD/svg11.dtd"><svg class="icon" width="48px" height="48.00px" viewBox="0 0 1024 1024" version="1.1" xmlns="http://www.w3.org/2000/svg"><path d="M807.04 202.24a32 32 0 0 0-28.8-16.64H159.36a32 32 0 0 0-31.36 16.64 27.52 27.52 0 0 0 4.48 31.36l223.36 235.52v265.6a28.8 28.8 0 0 0 17.28 26.24l162.56 74.24a33.92 33.92 0 0 0 30.08 0 28.8 28.8 0 0 0 15.36-24.32l10.88-341.12 210.56-236.16a27.52 27.52 0 0 0 4.48-31.36z m-287.36 560.64l-101.12-46.08V487.68h110.08z m25.6-332.8H401.28l-172.8-186.24h483.2z"  /><path d="M661.12 522.24H896V576h-234.88zM661.12 634.24H896v51.2h-234.88zM661.12 736.64H896v51.2h-234.88z"  /></svg>