<?xml version="1.0" standalone="no"?><!DOCTYPE svg PUBLIC "-//W3C//DTD SVG 1.1//EN" "http://www.w3.org/Graphics/SVG/1.1/DTD/svg11.dtd"><svg class="icon" width="48px" height="48.00px" viewBox="0 0 1024 1024" version="1.1" xmlns="http://www.w3.org/2000/svg"><path d="M819.2 512c0 169.677-137.523 307.2-307.2 307.2-169.656 0-307.2-137.523-307.2-307.2 0-169.656 137.544-307.2 307.2-307.2 169.677 0 307.2 137.544 307.2 307.2zM518.39 306.975c-91.177-6.984-161.997 41.86-191.754 129.29 16.302-47.923 80.67-91.3 126.791-102.277 86.14-20.542 158.864 46.838 176.313 127.693 6.307 29.184-0.164 108.748 56.217 83.947C722.698 529.45 707.83 470.61 698 441.692c-20.111-58.982-79.913-127.058-179.61-134.717zM498.83 716.288c90.89 10.158 163.349-36.168 196.137-122.511-17.981 47.329-83.804 88.391-130.252 97.792C477.9 709.059 407.593 639.2 392.95 557.814c-5.284-29.389 3.932-108.688-53.269-85.893-37.294 14.91-24.494 74.22-15.667 103.444 18.043 59.72 75.407 129.843 174.817 140.923z" fill="#cdcdcd" /></svg>